<mxfile host="app.diagrams.net" modified="2020-09-13T16:14:59.875Z" agent="5.0 (Windows NT 6.1; Win64; x64) AppleWebKit/537.36 (KHTML, like Gecko) Chrome/84.0.4147.135 Safari/537.36 OPR/70.0.3728.178 (Edition Campaign 34)" etag="O6ECrqUX6BCC6dxUmJWP" version="13.6.6" type="github" pages="5">
  <diagram id="kzt4FLD5MH03pCufuGbX" name="Page-1">
    <mxGraphModel dx="828" dy="1659" grid="1" gridSize="10" guides="1" tooltips="1" connect="1" arrows="1" fold="1" page="1" pageScale="1" pageWidth="827" pageHeight="1169" math="0" shadow="0">
      <root>
        <mxCell id="0" />
        <mxCell id="1" parent="0" />
        <mxCell id="f2y4RyPm44a0e2cGGTvA-6" style="edgeStyle=orthogonalEdgeStyle;rounded=0;orthogonalLoop=1;jettySize=auto;html=1;exitX=0.5;exitY=1;exitDx=0;exitDy=0;entryX=0.5;entryY=0;entryDx=0;entryDy=0;" parent="1" source="f2y4RyPm44a0e2cGGTvA-1" target="f2y4RyPm44a0e2cGGTvA-4" edge="1">
          <mxGeometry relative="1" as="geometry" />
        </mxCell>
        <mxCell id="f2y4RyPm44a0e2cGGTvA-1" value="&lt;b&gt;&lt;font face=&quot;Times New Roman&quot;&gt;Début&lt;/font&gt;&lt;/b&gt;" style="ellipse;whiteSpace=wrap;html=1;" parent="1" vertex="1">
          <mxGeometry x="310" y="-1140" width="120" height="60" as="geometry" />
        </mxCell>
        <mxCell id="f2y4RyPm44a0e2cGGTvA-9" style="edgeStyle=orthogonalEdgeStyle;rounded=0;orthogonalLoop=1;jettySize=auto;html=1;exitX=0.5;exitY=1;exitDx=0;exitDy=0;" parent="1" source="f2y4RyPm44a0e2cGGTvA-4" target="f2y4RyPm44a0e2cGGTvA-8" edge="1">
          <mxGeometry relative="1" as="geometry" />
        </mxCell>
        <mxCell id="f2y4RyPm44a0e2cGGTvA-4" value="&lt;b&gt;&lt;font face=&quot;Times New Roman&quot;&gt;Déclaration des bibliothèques, des pins et leurs initialisation&lt;/font&gt;&lt;/b&gt;" style="rounded=0;whiteSpace=wrap;html=1;" parent="1" vertex="1">
          <mxGeometry x="310" y="-1060" width="120" height="70" as="geometry" />
        </mxCell>
        <mxCell id="f2y4RyPm44a0e2cGGTvA-12" style="edgeStyle=orthogonalEdgeStyle;rounded=0;orthogonalLoop=1;jettySize=auto;html=1;exitX=0.5;exitY=1;exitDx=0;exitDy=0;entryX=0.5;entryY=0;entryDx=0;entryDy=0;" parent="1" source="f2y4RyPm44a0e2cGGTvA-5" target="f2y4RyPm44a0e2cGGTvA-11" edge="1">
          <mxGeometry relative="1" as="geometry" />
        </mxCell>
        <mxCell id="f2y4RyPm44a0e2cGGTvA-5" value="&lt;b&gt;&lt;font face=&quot;Times New Roman&quot;&gt;- Configuration des pins en mode E/S&lt;br&gt;- Création du serveur BLE&lt;br&gt;- Affichage du &lt;font color=&quot;#3333ff&quot;&gt;logo CoagCare&lt;/font&gt;&lt;/font&gt;&lt;/b&gt;" style="rounded=0;whiteSpace=wrap;html=1;" parent="1" vertex="1">
          <mxGeometry x="310" y="-940" width="120" height="110" as="geometry" />
        </mxCell>
        <mxCell id="f2y4RyPm44a0e2cGGTvA-10" style="edgeStyle=orthogonalEdgeStyle;rounded=0;orthogonalLoop=1;jettySize=auto;html=1;exitX=0.5;exitY=1;exitDx=0;exitDy=0;entryX=0.5;entryY=0;entryDx=0;entryDy=0;" parent="1" source="f2y4RyPm44a0e2cGGTvA-8" target="f2y4RyPm44a0e2cGGTvA-5" edge="1">
          <mxGeometry relative="1" as="geometry" />
        </mxCell>
        <mxCell id="f2y4RyPm44a0e2cGGTvA-8" value="&lt;b&gt;setup()&lt;/b&gt;" style="rounded=1;whiteSpace=wrap;html=1;fillColor=#60a917;strokeColor=#2D7600;fontColor=#ffffff;" parent="1" vertex="1">
          <mxGeometry x="310" y="-980" width="120" height="20" as="geometry" />
        </mxCell>
        <mxCell id="f2y4RyPm44a0e2cGGTvA-79" style="edgeStyle=orthogonalEdgeStyle;rounded=0;orthogonalLoop=1;jettySize=auto;html=1;exitX=0.5;exitY=1;exitDx=0;exitDy=0;entryX=0.5;entryY=0;entryDx=0;entryDy=0;" parent="1" source="f2y4RyPm44a0e2cGGTvA-11" target="f2y4RyPm44a0e2cGGTvA-13" edge="1">
          <mxGeometry relative="1" as="geometry" />
        </mxCell>
        <mxCell id="f2y4RyPm44a0e2cGGTvA-11" value="&lt;b&gt;loop()&lt;/b&gt;" style="rounded=1;whiteSpace=wrap;html=1;fillColor=#60a917;strokeColor=#2D7600;fontColor=#ffffff;" parent="1" vertex="1">
          <mxGeometry x="310" y="-820" width="120" height="30" as="geometry" />
        </mxCell>
        <mxCell id="f2y4RyPm44a0e2cGGTvA-19" style="edgeStyle=orthogonalEdgeStyle;rounded=0;orthogonalLoop=1;jettySize=auto;html=1;exitX=0.5;exitY=1;exitDx=0;exitDy=0;entryX=0.5;entryY=0;entryDx=0;entryDy=0;" parent="1" source="f2y4RyPm44a0e2cGGTvA-13" target="f2y4RyPm44a0e2cGGTvA-18" edge="1">
          <mxGeometry relative="1" as="geometry" />
        </mxCell>
        <mxCell id="f2y4RyPm44a0e2cGGTvA-80" style="edgeStyle=orthogonalEdgeStyle;rounded=0;orthogonalLoop=1;jettySize=auto;html=1;entryX=0.5;entryY=0;entryDx=0;entryDy=0;" parent="1" source="f2y4RyPm44a0e2cGGTvA-13" target="f2y4RyPm44a0e2cGGTvA-58" edge="1">
          <mxGeometry relative="1" as="geometry" />
        </mxCell>
        <mxCell id="f2y4RyPm44a0e2cGGTvA-13" value="&lt;b&gt;&amp;nbsp;connecte?&lt;/b&gt;" style="rhombus;whiteSpace=wrap;html=1;fillColor=#ffe6cc;strokeColor=#d79b00;" parent="1" vertex="1">
          <mxGeometry x="305" y="-770" width="120" height="70" as="geometry" />
        </mxCell>
        <mxCell id="f2y4RyPm44a0e2cGGTvA-16" value="&lt;b&gt;oui&lt;/b&gt;" style="text;html=1;strokeColor=none;fillColor=none;align=center;verticalAlign=middle;whiteSpace=wrap;rounded=0;" parent="1" vertex="1">
          <mxGeometry x="374" y="-700" width="40" height="20" as="geometry" />
        </mxCell>
        <mxCell id="f2y4RyPm44a0e2cGGTvA-21" style="edgeStyle=orthogonalEdgeStyle;rounded=0;orthogonalLoop=1;jettySize=auto;html=1;exitX=0.5;exitY=1;exitDx=0;exitDy=0;entryX=0.5;entryY=0;entryDx=0;entryDy=0;" parent="1" source="f2y4RyPm44a0e2cGGTvA-18" target="f2y4RyPm44a0e2cGGTvA-20" edge="1">
          <mxGeometry relative="1" as="geometry" />
        </mxCell>
        <mxCell id="f2y4RyPm44a0e2cGGTvA-18" value="&lt;b&gt;&lt;font face=&quot;Times New Roman&quot;&gt;clearDisplay&lt;br&gt;afficher &lt;font color=&quot;#0000ff&quot;&gt;Connect&lt;/font&gt;&lt;br&gt;delay 500ms&lt;br&gt;led RGB=111&lt;br&gt;delay 500ms&lt;br&gt;led RGB=000&lt;br&gt;delay 500ms&lt;/font&gt;&lt;/b&gt;" style="rounded=0;whiteSpace=wrap;html=1;" parent="1" vertex="1">
          <mxGeometry x="295" y="-680" width="140" height="100" as="geometry" />
        </mxCell>
        <mxCell id="f2y4RyPm44a0e2cGGTvA-23" style="edgeStyle=orthogonalEdgeStyle;rounded=0;orthogonalLoop=1;jettySize=auto;html=1;exitX=0.5;exitY=1;exitDx=0;exitDy=0;entryX=0.5;entryY=0;entryDx=0;entryDy=0;" parent="1" source="f2y4RyPm44a0e2cGGTvA-20" target="f2y4RyPm44a0e2cGGTvA-22" edge="1">
          <mxGeometry relative="1" as="geometry" />
        </mxCell>
        <mxCell id="f2y4RyPm44a0e2cGGTvA-20" value="&lt;b&gt;lire etat_btnopen&lt;/b&gt;" style="rounded=0;whiteSpace=wrap;html=1;" parent="1" vertex="1">
          <mxGeometry x="295" y="-550" width="140" height="60" as="geometry" />
        </mxCell>
        <mxCell id="f2y4RyPm44a0e2cGGTvA-39" style="edgeStyle=orthogonalEdgeStyle;rounded=0;orthogonalLoop=1;jettySize=auto;html=1;exitX=0.5;exitY=1;exitDx=0;exitDy=0;entryX=0.5;entryY=0;entryDx=0;entryDy=0;" parent="1" source="f2y4RyPm44a0e2cGGTvA-22" target="f2y4RyPm44a0e2cGGTvA-38" edge="1">
          <mxGeometry relative="1" as="geometry" />
        </mxCell>
        <mxCell id="f2y4RyPm44a0e2cGGTvA-52" style="edgeStyle=orthogonalEdgeStyle;rounded=0;orthogonalLoop=1;jettySize=auto;html=1;exitX=1;exitY=0.5;exitDx=0;exitDy=0;entryX=0.5;entryY=0;entryDx=0;entryDy=0;" parent="1" source="f2y4RyPm44a0e2cGGTvA-22" target="f2y4RyPm44a0e2cGGTvA-51" edge="1">
          <mxGeometry relative="1" as="geometry" />
        </mxCell>
        <mxCell id="f2y4RyPm44a0e2cGGTvA-22" value="&lt;b&gt;&lt;font face=&quot;Times New Roman&quot;&gt;etat_btnopen==HIGH?&lt;/font&gt;&lt;/b&gt;" style="rhombus;whiteSpace=wrap;html=1;" parent="1" vertex="1">
          <mxGeometry x="295" y="-470" width="140" height="80" as="geometry" />
        </mxCell>
        <mxCell id="f2y4RyPm44a0e2cGGTvA-24" value="&lt;b&gt;non&lt;/b&gt;" style="text;html=1;strokeColor=none;fillColor=none;align=center;verticalAlign=middle;whiteSpace=wrap;rounded=0;" parent="1" vertex="1">
          <mxGeometry x="435" y="-430" width="40" height="20" as="geometry" />
        </mxCell>
        <mxCell id="f2y4RyPm44a0e2cGGTvA-25" value="&lt;b&gt;oui&lt;/b&gt;" style="text;html=1;strokeColor=none;fillColor=none;align=center;verticalAlign=middle;whiteSpace=wrap;rounded=0;" parent="1" vertex="1">
          <mxGeometry x="385" y="-390" width="40" height="20" as="geometry" />
        </mxCell>
        <mxCell id="f2y4RyPm44a0e2cGGTvA-48" style="edgeStyle=orthogonalEdgeStyle;rounded=0;orthogonalLoop=1;jettySize=auto;html=1;exitX=0.5;exitY=1;exitDx=0;exitDy=0;" parent="1" source="f2y4RyPm44a0e2cGGTvA-27" target="f2y4RyPm44a0e2cGGTvA-32" edge="1">
          <mxGeometry relative="1" as="geometry" />
        </mxCell>
        <mxCell id="f2y4RyPm44a0e2cGGTvA-27" value="&lt;b&gt;&lt;font face=&quot;Times New Roman&quot;&gt;&lt;font color=&quot;#ff8000&quot;&gt;test_bandlette()&lt;br&gt;&lt;/font&gt;delay 2000ms&lt;/font&gt;&lt;/b&gt;" style="rounded=1;whiteSpace=wrap;html=1;" parent="1" vertex="1">
          <mxGeometry x="305" y="-260" width="120" height="40" as="geometry" />
        </mxCell>
        <mxCell id="f2y4RyPm44a0e2cGGTvA-49" style="edgeStyle=orthogonalEdgeStyle;rounded=0;orthogonalLoop=1;jettySize=auto;html=1;exitX=0.5;exitY=1;exitDx=0;exitDy=0;entryX=0.5;entryY=0;entryDx=0;entryDy=0;" parent="1" source="f2y4RyPm44a0e2cGGTvA-32" target="f2y4RyPm44a0e2cGGTvA-34" edge="1">
          <mxGeometry relative="1" as="geometry" />
        </mxCell>
        <mxCell id="f2y4RyPm44a0e2cGGTvA-32" value="&lt;b&gt;&lt;font face=&quot;Times New Roman&quot;&gt;lire etat_BoutonBP2&lt;br&gt;delay 2000ms&lt;/font&gt;&lt;/b&gt;" style="rounded=0;whiteSpace=wrap;html=1;" parent="1" vertex="1">
          <mxGeometry x="305" y="-200" width="120" height="30" as="geometry" />
        </mxCell>
        <mxCell id="f2y4RyPm44a0e2cGGTvA-54" style="edgeStyle=orthogonalEdgeStyle;rounded=0;orthogonalLoop=1;jettySize=auto;html=1;exitX=0.5;exitY=1;exitDx=0;exitDy=0;" parent="1" source="f2y4RyPm44a0e2cGGTvA-34" target="f2y4RyPm44a0e2cGGTvA-53" edge="1">
          <mxGeometry relative="1" as="geometry" />
        </mxCell>
        <mxCell id="f2y4RyPm44a0e2cGGTvA-34" value="&lt;font color=&quot;#ff8000&quot;&gt;&lt;b&gt;testmesure()&lt;/b&gt;&lt;/font&gt;" style="rounded=1;whiteSpace=wrap;html=1;" parent="1" vertex="1">
          <mxGeometry x="310" y="-150" width="120" height="20" as="geometry" />
        </mxCell>
        <mxCell id="f2y4RyPm44a0e2cGGTvA-46" style="edgeStyle=orthogonalEdgeStyle;rounded=0;orthogonalLoop=1;jettySize=auto;html=1;exitX=0.5;exitY=1;exitDx=0;exitDy=0;entryX=0.5;entryY=0;entryDx=0;entryDy=0;" parent="1" source="f2y4RyPm44a0e2cGGTvA-37" target="f2y4RyPm44a0e2cGGTvA-27" edge="1">
          <mxGeometry relative="1" as="geometry" />
        </mxCell>
        <mxCell id="f2y4RyPm44a0e2cGGTvA-37" value="&lt;b&gt;&lt;font face=&quot;Times New Roman&quot;&gt;&lt;span style=&quot;font-size: 12px ; font-style: normal ; letter-spacing: normal ; text-align: center ; text-indent: 0px ; text-transform: none ; word-spacing: 0px ; background-color: rgb(248 , 249 , 250) ; display: inline ; float: none&quot;&gt;&lt;font color=&quot;#ff8000&quot;&gt;startt()&lt;/font&gt;&lt;br&gt;&lt;/span&gt;&lt;span style=&quot;color: rgb(0 , 0 , 0) ; font-size: 12px ; font-style: normal ; letter-spacing: normal ; text-align: center ; text-indent: 0px ; text-transform: none ; word-spacing: 0px ; background-color: rgb(248 , 249 , 250) ; display: inline ; float: none&quot;&gt;&amp;nbsp;lire etatBoutonBP1&lt;/span&gt;&lt;/font&gt;&lt;/b&gt;" style="rounded=1;whiteSpace=wrap;html=1;" parent="1" vertex="1">
          <mxGeometry x="305" y="-320" width="115" height="50" as="geometry" />
        </mxCell>
        <mxCell id="f2y4RyPm44a0e2cGGTvA-47" style="edgeStyle=orthogonalEdgeStyle;rounded=0;orthogonalLoop=1;jettySize=auto;html=1;exitX=0.5;exitY=1;exitDx=0;exitDy=0;entryX=0.5;entryY=0;entryDx=0;entryDy=0;" parent="1" source="f2y4RyPm44a0e2cGGTvA-38" target="f2y4RyPm44a0e2cGGTvA-37" edge="1">
          <mxGeometry relative="1" as="geometry" />
        </mxCell>
        <mxCell id="f2y4RyPm44a0e2cGGTvA-38" value="&lt;b&gt;&lt;font face=&quot;Times New Roman&quot;&gt;delay 250ms&lt;/font&gt;&lt;/b&gt;" style="rounded=0;whiteSpace=wrap;html=1;" parent="1" vertex="1">
          <mxGeometry x="305" y="-370" width="120" height="30" as="geometry" />
        </mxCell>
        <mxCell id="f2y4RyPm44a0e2cGGTvA-55" style="edgeStyle=orthogonalEdgeStyle;rounded=0;orthogonalLoop=1;jettySize=auto;html=1;exitX=0.5;exitY=1;exitDx=0;exitDy=0;entryX=1;entryY=0.5;entryDx=0;entryDy=0;" parent="1" source="f2y4RyPm44a0e2cGGTvA-51" target="f2y4RyPm44a0e2cGGTvA-53" edge="1">
          <mxGeometry relative="1" as="geometry" />
        </mxCell>
        <mxCell id="f2y4RyPm44a0e2cGGTvA-51" value="&lt;b&gt;clearDisplay&lt;br&gt;affichage &lt;font color=&quot;#0000ff&quot;&gt;CoagCare Tlili Younes&lt;/font&gt;&lt;br&gt;delay 1000ms&lt;/b&gt;" style="rounded=0;whiteSpace=wrap;html=1;" parent="1" vertex="1">
          <mxGeometry x="475" y="-410" width="120" height="60" as="geometry" />
        </mxCell>
        <mxCell id="f2y4RyPm44a0e2cGGTvA-56" style="edgeStyle=orthogonalEdgeStyle;rounded=0;orthogonalLoop=1;jettySize=auto;html=1;exitX=0.5;exitY=1;exitDx=0;exitDy=0;entryX=0;entryY=0.5;entryDx=0;entryDy=0;" parent="1" source="f2y4RyPm44a0e2cGGTvA-53" target="f2y4RyPm44a0e2cGGTvA-13" edge="1">
          <mxGeometry relative="1" as="geometry" />
        </mxCell>
        <mxCell id="f2y4RyPm44a0e2cGGTvA-53" value="&lt;b&gt;delay 10000ms&lt;/b&gt;" style="rounded=0;whiteSpace=wrap;html=1;" parent="1" vertex="1">
          <mxGeometry x="305" y="-110" width="120" height="20" as="geometry" />
        </mxCell>
        <mxCell id="f2y4RyPm44a0e2cGGTvA-72" style="edgeStyle=orthogonalEdgeStyle;rounded=0;orthogonalLoop=1;jettySize=auto;html=1;exitX=0.5;exitY=1;exitDx=0;exitDy=0;entryX=0.5;entryY=0;entryDx=0;entryDy=0;" parent="1" source="f2y4RyPm44a0e2cGGTvA-58" target="f2y4RyPm44a0e2cGGTvA-69" edge="1">
          <mxGeometry relative="1" as="geometry" />
        </mxCell>
        <mxCell id="f2y4RyPm44a0e2cGGTvA-58" value="&lt;b&gt;&lt;br&gt;delay 500ms&lt;br&gt;startAdvertising()&amp;nbsp;&lt;br&gt;clearDisplay&lt;/b&gt;" style="rounded=0;whiteSpace=wrap;html=1;" parent="1" vertex="1">
          <mxGeometry x="559" y="-710" width="111" height="60" as="geometry" />
        </mxCell>
        <mxCell id="f2y4RyPm44a0e2cGGTvA-73" style="edgeStyle=orthogonalEdgeStyle;rounded=0;orthogonalLoop=1;jettySize=auto;html=1;exitX=0.5;exitY=1;exitDx=0;exitDy=0;entryX=0.5;entryY=0;entryDx=0;entryDy=0;" parent="1" source="f2y4RyPm44a0e2cGGTvA-69" target="f2y4RyPm44a0e2cGGTvA-70" edge="1">
          <mxGeometry relative="1" as="geometry" />
        </mxCell>
        <mxCell id="f2y4RyPm44a0e2cGGTvA-69" value="&lt;b&gt;&lt;span&gt;affichage&amp;nbsp;&lt;/span&gt;&lt;font color=&quot;#0000ff&quot;&gt;Deconnect&lt;/font&gt;&lt;/b&gt;" style="rounded=0;whiteSpace=wrap;html=1;" parent="1" vertex="1">
          <mxGeometry x="551.5" y="-630" width="126" height="30" as="geometry" />
        </mxCell>
        <mxCell id="W7fdVW8dTczUbE0kZvKV-2" style="edgeStyle=orthogonalEdgeStyle;rounded=0;orthogonalLoop=1;jettySize=auto;html=1;exitX=0.5;exitY=1;exitDx=0;exitDy=0;" parent="1" source="f2y4RyPm44a0e2cGGTvA-70" target="f2y4RyPm44a0e2cGGTvA-83" edge="1">
          <mxGeometry relative="1" as="geometry">
            <Array as="points">
              <mxPoint x="610" y="-50" />
              <mxPoint x="370" y="-50" />
            </Array>
          </mxGeometry>
        </mxCell>
        <mxCell id="f2y4RyPm44a0e2cGGTvA-70" value="&lt;b&gt;&lt;span&gt;delay 2500ms&lt;/span&gt;&lt;br&gt;&lt;/b&gt;&lt;span&gt;&lt;b&gt;clearDisplay&lt;br&gt;delay 50ms&lt;/b&gt;&lt;br&gt;&lt;/span&gt;" style="rounded=0;whiteSpace=wrap;html=1;" parent="1" vertex="1">
          <mxGeometry x="550" y="-570" width="120" height="70" as="geometry" />
        </mxCell>
        <mxCell id="f2y4RyPm44a0e2cGGTvA-83" value="&lt;b&gt;fin&lt;/b&gt;" style="ellipse;whiteSpace=wrap;html=1;" parent="1" vertex="1">
          <mxGeometry x="310" y="-30" width="120" height="40" as="geometry" />
        </mxCell>
        <mxCell id="xIjr28dytmKUBjGryEaF-1" value="&lt;b&gt;non&lt;/b&gt;" style="text;html=1;strokeColor=none;fillColor=none;align=center;verticalAlign=middle;whiteSpace=wrap;rounded=0;" vertex="1" parent="1">
          <mxGeometry x="460" y="-730" width="40" height="20" as="geometry" />
        </mxCell>
      </root>
    </mxGraphModel>
  </diagram>
  <diagram id="2GkypHA0aP70jvncfRC9" name="Page-2">
    <mxGraphModel dx="828" dy="490" grid="1" gridSize="10" guides="1" tooltips="1" connect="1" arrows="1" fold="1" page="1" pageScale="1" pageWidth="827" pageHeight="1169" math="0" shadow="0">
      <root>
        <mxCell id="g97E0Urq0vQgT4TZOZqk-0" />
        <mxCell id="g97E0Urq0vQgT4TZOZqk-1" parent="g97E0Urq0vQgT4TZOZqk-0" />
        <mxCell id="8nOZFwMHiPQFSIOkz1cK-10" style="edgeStyle=orthogonalEdgeStyle;rounded=0;orthogonalLoop=1;jettySize=auto;html=1;exitX=0.5;exitY=1;exitDx=0;exitDy=0;entryX=0.5;entryY=0;entryDx=0;entryDy=0;" parent="g97E0Urq0vQgT4TZOZqk-1" source="8nOZFwMHiPQFSIOkz1cK-3" target="8nOZFwMHiPQFSIOkz1cK-4" edge="1">
          <mxGeometry relative="1" as="geometry" />
        </mxCell>
        <mxCell id="8nOZFwMHiPQFSIOkz1cK-3" value="&lt;b&gt;début&lt;/b&gt;" style="ellipse;whiteSpace=wrap;html=1;" parent="g97E0Urq0vQgT4TZOZqk-1" vertex="1">
          <mxGeometry x="280" y="30" width="120" height="70" as="geometry" />
        </mxCell>
        <mxCell id="8nOZFwMHiPQFSIOkz1cK-12" style="edgeStyle=orthogonalEdgeStyle;rounded=0;orthogonalLoop=1;jettySize=auto;html=1;exitX=0.5;exitY=1;exitDx=0;exitDy=0;entryX=0.5;entryY=0;entryDx=0;entryDy=0;" parent="g97E0Urq0vQgT4TZOZqk-1" source="8nOZFwMHiPQFSIOkz1cK-4" target="8nOZFwMHiPQFSIOkz1cK-5" edge="1">
          <mxGeometry relative="1" as="geometry" />
        </mxCell>
        <mxCell id="8nOZFwMHiPQFSIOkz1cK-4" value="&lt;b&gt;&lt;font face=&quot;Times New Roman&quot;&gt;clearDisplay&lt;br&gt;affichage&amp;nbsp;&lt;font color=&quot;#0000ff&quot;&gt;Start&lt;/font&gt;&lt;br&gt;delay 100ms&lt;/font&gt;&lt;/b&gt;" style="rounded=0;whiteSpace=wrap;html=1;" parent="g97E0Urq0vQgT4TZOZqk-1" vertex="1">
          <mxGeometry x="280" y="120" width="120" height="60" as="geometry" />
        </mxCell>
        <mxCell id="8nOZFwMHiPQFSIOkz1cK-13" style="edgeStyle=orthogonalEdgeStyle;rounded=0;orthogonalLoop=1;jettySize=auto;html=1;exitX=0.5;exitY=1;exitDx=0;exitDy=0;entryX=0.5;entryY=0;entryDx=0;entryDy=0;" parent="g97E0Urq0vQgT4TZOZqk-1" source="8nOZFwMHiPQFSIOkz1cK-5" target="8nOZFwMHiPQFSIOkz1cK-6" edge="1">
          <mxGeometry relative="1" as="geometry" />
        </mxCell>
        <mxCell id="8nOZFwMHiPQFSIOkz1cK-5" value="&lt;b&gt;&lt;font face=&quot;Times New Roman&quot;&gt;clearDisplay&lt;br&gt;affichage&amp;nbsp;&lt;/font&gt;&lt;/b&gt;&lt;font color=&quot;#0000ff&quot;&gt;&lt;b&gt;&lt;font face=&quot;Times New Roman&quot;&gt;Mon patient bienvenue dans notre application CoagCare&lt;br&gt;&lt;/font&gt;&lt;/b&gt;&lt;br&gt;&lt;/font&gt;" style="rounded=0;whiteSpace=wrap;html=1;" parent="g97E0Urq0vQgT4TZOZqk-1" vertex="1">
          <mxGeometry x="260" y="200" width="170" height="70" as="geometry" />
        </mxCell>
        <mxCell id="8nOZFwMHiPQFSIOkz1cK-14" style="edgeStyle=orthogonalEdgeStyle;rounded=0;orthogonalLoop=1;jettySize=auto;html=1;exitX=0.5;exitY=1;exitDx=0;exitDy=0;entryX=0.5;entryY=0;entryDx=0;entryDy=0;" parent="g97E0Urq0vQgT4TZOZqk-1" source="8nOZFwMHiPQFSIOkz1cK-6" target="8nOZFwMHiPQFSIOkz1cK-9" edge="1">
          <mxGeometry relative="1" as="geometry" />
        </mxCell>
        <mxCell id="8nOZFwMHiPQFSIOkz1cK-6" value="&lt;b&gt;&lt;font face=&quot;Times New Roman&quot;&gt;&lt;br&gt;&lt;span style=&quot;font-size: 12px ; font-style: normal ; letter-spacing: normal ; text-align: center ; text-indent: 0px ; text-transform: none ; word-spacing: 0px ; background-color: rgb(248 , 249 , 250)&quot;&gt;delay 3000ms&lt;/span&gt;&lt;/font&gt;&lt;/b&gt;" style="rounded=0;whiteSpace=wrap;html=1;" parent="g97E0Urq0vQgT4TZOZqk-1" vertex="1">
          <mxGeometry x="260" y="290" width="170" height="30" as="geometry" />
        </mxCell>
        <mxCell id="8nOZFwMHiPQFSIOkz1cK-18" style="edgeStyle=orthogonalEdgeStyle;rounded=0;orthogonalLoop=1;jettySize=auto;html=1;exitX=0.5;exitY=1;exitDx=0;exitDy=0;entryX=0.5;entryY=0;entryDx=0;entryDy=0;" parent="g97E0Urq0vQgT4TZOZqk-1" source="8nOZFwMHiPQFSIOkz1cK-9" target="8nOZFwMHiPQFSIOkz1cK-15" edge="1">
          <mxGeometry relative="1" as="geometry" />
        </mxCell>
        <mxCell id="8nOZFwMHiPQFSIOkz1cK-9" value="&lt;b&gt;&lt;font face=&quot;Times New Roman&quot;&gt;clearDisplay&lt;br&gt;affichage&amp;nbsp;&lt;font color=&quot;#3333ff&quot;&gt;preparer la bandlette si tu peux mesurer son INR !!!!&lt;/font&gt;&lt;/font&gt;&lt;/b&gt;" style="rounded=0;whiteSpace=wrap;html=1;strokeColor=#000000;" parent="g97E0Urq0vQgT4TZOZqk-1" vertex="1">
          <mxGeometry x="260" y="350" width="170" height="60" as="geometry" />
        </mxCell>
        <mxCell id="8nOZFwMHiPQFSIOkz1cK-19" style="edgeStyle=orthogonalEdgeStyle;rounded=0;orthogonalLoop=1;jettySize=auto;html=1;exitX=0.5;exitY=1;exitDx=0;exitDy=0;entryX=0.5;entryY=0;entryDx=0;entryDy=0;" parent="g97E0Urq0vQgT4TZOZqk-1" source="8nOZFwMHiPQFSIOkz1cK-15" target="8nOZFwMHiPQFSIOkz1cK-16" edge="1">
          <mxGeometry relative="1" as="geometry" />
        </mxCell>
        <mxCell id="8nOZFwMHiPQFSIOkz1cK-15" value="&lt;b&gt;&lt;font face=&quot;Times New Roman&quot;&gt;delay 3000ms&lt;/font&gt;&lt;/b&gt;" style="rounded=0;whiteSpace=wrap;html=1;strokeColor=#000000;" parent="g97E0Urq0vQgT4TZOZqk-1" vertex="1">
          <mxGeometry x="260" y="430" width="170" height="30" as="geometry" />
        </mxCell>
        <mxCell id="8nOZFwMHiPQFSIOkz1cK-20" style="edgeStyle=orthogonalEdgeStyle;rounded=0;orthogonalLoop=1;jettySize=auto;html=1;exitX=0.5;exitY=1;exitDx=0;exitDy=0;entryX=0.5;entryY=0;entryDx=0;entryDy=0;" parent="g97E0Urq0vQgT4TZOZqk-1" source="8nOZFwMHiPQFSIOkz1cK-16" target="8nOZFwMHiPQFSIOkz1cK-17" edge="1">
          <mxGeometry relative="1" as="geometry" />
        </mxCell>
        <mxCell id="8nOZFwMHiPQFSIOkz1cK-16" value="&lt;b&gt;&lt;font face=&quot;Times New Roman&quot;&gt;clearDisplay&lt;br&gt;affichage&amp;nbsp;&lt;font color=&quot;#0000ff&quot;&gt;TEST ........&lt;/font&gt;.&lt;/font&gt;&lt;/b&gt;" style="rounded=0;whiteSpace=wrap;html=1;strokeColor=#000000;" parent="g97E0Urq0vQgT4TZOZqk-1" vertex="1">
          <mxGeometry x="260" y="480" width="170" height="60" as="geometry" />
        </mxCell>
        <mxCell id="8nOZFwMHiPQFSIOkz1cK-22" style="edgeStyle=orthogonalEdgeStyle;rounded=0;orthogonalLoop=1;jettySize=auto;html=1;exitX=0.5;exitY=1;exitDx=0;exitDy=0;entryX=0.5;entryY=0;entryDx=0;entryDy=0;" parent="g97E0Urq0vQgT4TZOZqk-1" source="8nOZFwMHiPQFSIOkz1cK-17" target="8nOZFwMHiPQFSIOkz1cK-21" edge="1">
          <mxGeometry relative="1" as="geometry" />
        </mxCell>
        <mxCell id="8nOZFwMHiPQFSIOkz1cK-17" value="&lt;b&gt;&lt;font face=&quot;Times New Roman&quot;&gt;delay 1500ms&lt;/font&gt;&lt;/b&gt;" style="rounded=0;whiteSpace=wrap;html=1;strokeColor=#000000;" parent="g97E0Urq0vQgT4TZOZqk-1" vertex="1">
          <mxGeometry x="260" y="560" width="170" height="40" as="geometry" />
        </mxCell>
        <mxCell id="8nOZFwMHiPQFSIOkz1cK-21" value="&lt;b&gt;fin&lt;/b&gt;" style="ellipse;whiteSpace=wrap;html=1;strokeColor=#000000;" parent="g97E0Urq0vQgT4TZOZqk-1" vertex="1">
          <mxGeometry x="285" y="630" width="120" height="60" as="geometry" />
        </mxCell>
      </root>
    </mxGraphModel>
  </diagram>
  <diagram id="NCM0L_dJgxb0fXo1U0QE" name="Page-3">
    <mxGraphModel dx="828" dy="490" grid="1" gridSize="10" guides="1" tooltips="1" connect="1" arrows="1" fold="1" page="1" pageScale="1" pageWidth="827" pageHeight="1169" math="0" shadow="0">
      <root>
        <mxCell id="R3B_2T7EtTmT9WLhf5X1-0" />
        <mxCell id="R3B_2T7EtTmT9WLhf5X1-1" parent="R3B_2T7EtTmT9WLhf5X1-0" />
        <mxCell id="R3B_2T7EtTmT9WLhf5X1-5" style="edgeStyle=orthogonalEdgeStyle;rounded=0;orthogonalLoop=1;jettySize=auto;html=1;entryX=0.5;entryY=0;entryDx=0;entryDy=0;" parent="R3B_2T7EtTmT9WLhf5X1-1" source="R3B_2T7EtTmT9WLhf5X1-2" target="R3B_2T7EtTmT9WLhf5X1-3" edge="1">
          <mxGeometry relative="1" as="geometry" />
        </mxCell>
        <mxCell id="R3B_2T7EtTmT9WLhf5X1-2" value="&lt;b&gt;début&lt;/b&gt;" style="ellipse;whiteSpace=wrap;html=1;strokeColor=#000000;" parent="R3B_2T7EtTmT9WLhf5X1-1" vertex="1">
          <mxGeometry x="300" y="50" width="120" height="50" as="geometry" />
        </mxCell>
        <mxCell id="R3B_2T7EtTmT9WLhf5X1-9" style="edgeStyle=orthogonalEdgeStyle;rounded=0;orthogonalLoop=1;jettySize=auto;html=1;exitX=0.5;exitY=1;exitDx=0;exitDy=0;entryX=0.5;entryY=0;entryDx=0;entryDy=0;" parent="R3B_2T7EtTmT9WLhf5X1-1" source="R3B_2T7EtTmT9WLhf5X1-3" target="R3B_2T7EtTmT9WLhf5X1-6" edge="1">
          <mxGeometry relative="1" as="geometry" />
        </mxCell>
        <mxCell id="R3B_2T7EtTmT9WLhf5X1-15" style="edgeStyle=orthogonalEdgeStyle;rounded=0;orthogonalLoop=1;jettySize=auto;html=1;exitX=1;exitY=0.5;exitDx=0;exitDy=0;entryX=0.5;entryY=0;entryDx=0;entryDy=0;" parent="R3B_2T7EtTmT9WLhf5X1-1" source="R3B_2T7EtTmT9WLhf5X1-3" target="R3B_2T7EtTmT9WLhf5X1-14" edge="1">
          <mxGeometry relative="1" as="geometry" />
        </mxCell>
        <mxCell id="R3B_2T7EtTmT9WLhf5X1-3" value="&lt;b&gt;&lt;font face=&quot;Times New Roman&quot;&gt;etatBoutonBP1==HIGH?&lt;/font&gt;&lt;/b&gt;" style="rhombus;whiteSpace=wrap;html=1;strokeColor=#d79b00;fillColor=#ffe6cc;" parent="R3B_2T7EtTmT9WLhf5X1-1" vertex="1">
          <mxGeometry x="280" y="150" width="160" height="80" as="geometry" />
        </mxCell>
        <mxCell id="R3B_2T7EtTmT9WLhf5X1-10" style="edgeStyle=orthogonalEdgeStyle;rounded=0;orthogonalLoop=1;jettySize=auto;html=1;exitX=0.5;exitY=1;exitDx=0;exitDy=0;entryX=0.5;entryY=0;entryDx=0;entryDy=0;" parent="R3B_2T7EtTmT9WLhf5X1-1" source="R3B_2T7EtTmT9WLhf5X1-6" target="R3B_2T7EtTmT9WLhf5X1-7" edge="1">
          <mxGeometry relative="1" as="geometry" />
        </mxCell>
        <mxCell id="R3B_2T7EtTmT9WLhf5X1-6" value="&lt;b&gt;&lt;font face=&quot;Times New Roman&quot;&gt;delay 10ms&lt;br&gt;clear display&lt;/font&gt;&lt;/b&gt;" style="rounded=0;whiteSpace=wrap;html=1;strokeColor=#000000;" parent="R3B_2T7EtTmT9WLhf5X1-1" vertex="1">
          <mxGeometry x="300" y="250" width="120" height="40" as="geometry" />
        </mxCell>
        <mxCell id="R3B_2T7EtTmT9WLhf5X1-11" style="edgeStyle=orthogonalEdgeStyle;rounded=0;orthogonalLoop=1;jettySize=auto;html=1;exitX=0.5;exitY=1;exitDx=0;exitDy=0;entryX=0.5;entryY=0;entryDx=0;entryDy=0;" parent="R3B_2T7EtTmT9WLhf5X1-1" source="R3B_2T7EtTmT9WLhf5X1-7" target="R3B_2T7EtTmT9WLhf5X1-8" edge="1">
          <mxGeometry relative="1" as="geometry" />
        </mxCell>
        <mxCell id="R3B_2T7EtTmT9WLhf5X1-7" value="&lt;b style=&quot;font-size: 14px&quot;&gt;&lt;font face=&quot;Times New Roman&quot; style=&quot;font-size: 14px&quot;&gt;affichage&amp;nbsp;&lt;font color=&quot;#0000ff&quot; style=&quot;font-size: 14px&quot;&gt;Pas de bandlette&lt;/font&gt;&lt;/font&gt;&lt;/b&gt;" style="rounded=0;whiteSpace=wrap;html=1;strokeColor=#000000;" parent="R3B_2T7EtTmT9WLhf5X1-1" vertex="1">
          <mxGeometry x="290" y="310" width="150" height="70" as="geometry" />
        </mxCell>
        <mxCell id="R3B_2T7EtTmT9WLhf5X1-23" style="edgeStyle=orthogonalEdgeStyle;rounded=0;orthogonalLoop=1;jettySize=auto;html=1;exitX=0.5;exitY=1;exitDx=0;exitDy=0;entryX=0.5;entryY=0;entryDx=0;entryDy=0;" parent="R3B_2T7EtTmT9WLhf5X1-1" source="R3B_2T7EtTmT9WLhf5X1-8" target="R3B_2T7EtTmT9WLhf5X1-22" edge="1">
          <mxGeometry relative="1" as="geometry" />
        </mxCell>
        <mxCell id="R3B_2T7EtTmT9WLhf5X1-8" value="&lt;b style=&quot;font-size: 13px&quot;&gt;&lt;font face=&quot;Times New Roman&quot; style=&quot;font-size: 13px&quot;&gt;delay 500ms&lt;br&gt;ledrouge=1&lt;br&gt;buzzer()&lt;br&gt;ledrouge=0&lt;br&gt;delay100ms&lt;/font&gt;&lt;/b&gt;" style="rounded=0;whiteSpace=wrap;html=1;strokeColor=#000000;" parent="R3B_2T7EtTmT9WLhf5X1-1" vertex="1">
          <mxGeometry x="290" y="410" width="150" height="90" as="geometry" />
        </mxCell>
        <mxCell id="R3B_2T7EtTmT9WLhf5X1-12" value="&lt;b&gt;oui&lt;/b&gt;" style="text;html=1;strokeColor=none;fillColor=none;align=center;verticalAlign=middle;whiteSpace=wrap;rounded=0;" parent="R3B_2T7EtTmT9WLhf5X1-1" vertex="1">
          <mxGeometry x="380" y="230" width="40" height="20" as="geometry" />
        </mxCell>
        <mxCell id="R3B_2T7EtTmT9WLhf5X1-13" value="&lt;b&gt;non&lt;/b&gt;" style="text;html=1;strokeColor=none;fillColor=none;align=center;verticalAlign=middle;whiteSpace=wrap;rounded=0;" parent="R3B_2T7EtTmT9WLhf5X1-1" vertex="1">
          <mxGeometry x="460" y="200" width="40" height="20" as="geometry" />
        </mxCell>
        <mxCell id="R3B_2T7EtTmT9WLhf5X1-20" style="edgeStyle=orthogonalEdgeStyle;rounded=0;orthogonalLoop=1;jettySize=auto;html=1;exitX=0.5;exitY=1;exitDx=0;exitDy=0;entryX=0.5;entryY=0;entryDx=0;entryDy=0;" parent="R3B_2T7EtTmT9WLhf5X1-1" source="R3B_2T7EtTmT9WLhf5X1-14" target="R3B_2T7EtTmT9WLhf5X1-17" edge="1">
          <mxGeometry relative="1" as="geometry" />
        </mxCell>
        <mxCell id="R3B_2T7EtTmT9WLhf5X1-14" value="&lt;b&gt;&lt;font face=&quot;Times New Roman&quot;&gt;delay 10ms&lt;br&gt;clear display&lt;/font&gt;&lt;/b&gt;" style="rounded=0;whiteSpace=wrap;html=1;strokeColor=#000000;" parent="R3B_2T7EtTmT9WLhf5X1-1" vertex="1">
          <mxGeometry x="520" y="250" width="120" height="40" as="geometry" />
        </mxCell>
        <mxCell id="R3B_2T7EtTmT9WLhf5X1-21" style="edgeStyle=orthogonalEdgeStyle;rounded=0;orthogonalLoop=1;jettySize=auto;html=1;exitX=0.5;exitY=1;exitDx=0;exitDy=0;entryX=0.5;entryY=0;entryDx=0;entryDy=0;" parent="R3B_2T7EtTmT9WLhf5X1-1" source="R3B_2T7EtTmT9WLhf5X1-17" target="R3B_2T7EtTmT9WLhf5X1-18" edge="1">
          <mxGeometry relative="1" as="geometry" />
        </mxCell>
        <mxCell id="R3B_2T7EtTmT9WLhf5X1-17" value="&lt;b style=&quot;font-size: 13px&quot;&gt;&lt;font face=&quot;Times New Roman&quot; style=&quot;font-size: 13px&quot;&gt;&lt;br&gt;&lt;span style=&quot;color: rgb(0 , 0 , 0) ; font-style: normal ; letter-spacing: normal ; text-align: center ; text-indent: 0px ; text-transform: none ; word-spacing: 0px ; background-color: rgb(248 , 249 , 250) ; display: inline ; float: none&quot;&gt;affichage&amp;nbsp;&lt;/span&gt;&lt;span style=&quot;color: rgb(0 , 0 , 0) ; font-style: normal ; letter-spacing: normal ; text-align: center ; text-indent: 0px ; text-transform: none ; word-spacing: 0px ; background-color: rgb(248 , 249 , 250) ; display: inline ; float: none&quot;&gt;&lt;font color=&quot;#0000ff&quot; style=&quot;font-size: 13px&quot;&gt;la bandlette dans ça place Merci de cliquer sur la botton start mesure&lt;/font&gt;&lt;/span&gt;&lt;/font&gt;&lt;/b&gt;" style="rounded=0;whiteSpace=wrap;html=1;strokeColor=#000000;" parent="R3B_2T7EtTmT9WLhf5X1-1" vertex="1">
          <mxGeometry x="500" y="310" width="160" height="80" as="geometry" />
        </mxCell>
        <mxCell id="R3B_2T7EtTmT9WLhf5X1-18" value="&lt;b style=&quot;font-size: 13px&quot;&gt;&lt;font face=&quot;Times New Roman&quot; style=&quot;font-size: 13px&quot;&gt;delay 1000ms&lt;br&gt;ledbleu=1&lt;br&gt;buzzer=1&lt;br&gt;delay 1000ms&lt;br&gt;ledbleu=0&lt;br&gt;buzzer=0&lt;/font&gt;&lt;/b&gt;" style="rounded=0;whiteSpace=wrap;html=1;strokeColor=#000000;" parent="R3B_2T7EtTmT9WLhf5X1-1" vertex="1">
          <mxGeometry x="500" y="400" width="160" height="90" as="geometry" />
        </mxCell>
        <mxCell id="R3B_2T7EtTmT9WLhf5X1-22" value="&lt;b&gt;fin&lt;/b&gt;" style="ellipse;whiteSpace=wrap;html=1;strokeColor=#000000;" parent="R3B_2T7EtTmT9WLhf5X1-1" vertex="1">
          <mxGeometry x="305" y="550" width="120" height="50" as="geometry" />
        </mxCell>
        <mxCell id="R3B_2T7EtTmT9WLhf5X1-25" value="" style="endArrow=classic;html=1;exitX=0.5;exitY=1;exitDx=0;exitDy=0;" parent="R3B_2T7EtTmT9WLhf5X1-1" source="R3B_2T7EtTmT9WLhf5X1-18" edge="1">
          <mxGeometry width="50" height="50" relative="1" as="geometry">
            <mxPoint x="390" y="530" as="sourcePoint" />
            <mxPoint x="370" y="520" as="targetPoint" />
            <Array as="points">
              <mxPoint x="580" y="520" />
            </Array>
          </mxGeometry>
        </mxCell>
      </root>
    </mxGraphModel>
  </diagram>
  <diagram id="6yLmNUuWnNMmZHvFqGQR" name="Page-4">
    <mxGraphModel dx="974" dy="576" grid="1" gridSize="10" guides="1" tooltips="1" connect="1" arrows="1" fold="1" page="1" pageScale="1" pageWidth="827" pageHeight="1169" math="0" shadow="0">
      <root>
        <mxCell id="KNuNnqPLRCmHPUiM6tUq-0" />
        <mxCell id="KNuNnqPLRCmHPUiM6tUq-1" parent="KNuNnqPLRCmHPUiM6tUq-0" />
        <mxCell id="KNuNnqPLRCmHPUiM6tUq-4" style="edgeStyle=orthogonalEdgeStyle;rounded=0;orthogonalLoop=1;jettySize=auto;html=1;exitX=0.5;exitY=1;exitDx=0;exitDy=0;entryX=0.5;entryY=0;entryDx=0;entryDy=0;" parent="KNuNnqPLRCmHPUiM6tUq-1" source="KNuNnqPLRCmHPUiM6tUq-2" target="KNuNnqPLRCmHPUiM6tUq-3" edge="1">
          <mxGeometry relative="1" as="geometry" />
        </mxCell>
        <mxCell id="KNuNnqPLRCmHPUiM6tUq-2" value="&lt;b&gt;début&lt;/b&gt;" style="ellipse;whiteSpace=wrap;html=1;strokeColor=#000000;" parent="KNuNnqPLRCmHPUiM6tUq-1" vertex="1">
          <mxGeometry x="300" y="50" width="120" height="40" as="geometry" />
        </mxCell>
        <mxCell id="KNuNnqPLRCmHPUiM6tUq-9" style="edgeStyle=orthogonalEdgeStyle;rounded=0;orthogonalLoop=1;jettySize=auto;html=1;exitX=0.5;exitY=1;exitDx=0;exitDy=0;entryX=0.5;entryY=0;entryDx=0;entryDy=0;" parent="KNuNnqPLRCmHPUiM6tUq-1" source="KNuNnqPLRCmHPUiM6tUq-3" target="KNuNnqPLRCmHPUiM6tUq-7" edge="1">
          <mxGeometry relative="1" as="geometry" />
        </mxCell>
        <mxCell id="KNuNnqPLRCmHPUiM6tUq-25" style="edgeStyle=orthogonalEdgeStyle;rounded=0;orthogonalLoop=1;jettySize=auto;html=1;exitX=1;exitY=0.5;exitDx=0;exitDy=0;entryX=0.5;entryY=0;entryDx=0;entryDy=0;" parent="KNuNnqPLRCmHPUiM6tUq-1" source="KNuNnqPLRCmHPUiM6tUq-3" target="KNuNnqPLRCmHPUiM6tUq-24" edge="1">
          <mxGeometry relative="1" as="geometry" />
        </mxCell>
        <mxCell id="KNuNnqPLRCmHPUiM6tUq-3" value="&lt;font face=&quot;Times New Roman&quot;&gt;etatBoutonBP2==HIGH?&lt;/font&gt;" style="rhombus;whiteSpace=wrap;html=1;strokeColor=#d79b00;fillColor=#ffe6cc;" parent="KNuNnqPLRCmHPUiM6tUq-1" vertex="1">
          <mxGeometry x="290" y="110" width="140" height="90" as="geometry" />
        </mxCell>
        <mxCell id="KNuNnqPLRCmHPUiM6tUq-5" value="&lt;b&gt;oui&lt;/b&gt;" style="text;html=1;strokeColor=none;fillColor=none;align=center;verticalAlign=middle;whiteSpace=wrap;rounded=0;" parent="KNuNnqPLRCmHPUiM6tUq-1" vertex="1">
          <mxGeometry x="394" y="190" width="40" height="20" as="geometry" />
        </mxCell>
        <mxCell id="KNuNnqPLRCmHPUiM6tUq-6" value="&lt;b&gt;non&lt;/b&gt;" style="text;html=1;strokeColor=none;fillColor=none;align=center;verticalAlign=middle;whiteSpace=wrap;rounded=0;" parent="KNuNnqPLRCmHPUiM6tUq-1" vertex="1">
          <mxGeometry x="460" y="160" width="40" height="20" as="geometry" />
        </mxCell>
        <mxCell id="KNuNnqPLRCmHPUiM6tUq-10" style="edgeStyle=orthogonalEdgeStyle;rounded=0;orthogonalLoop=1;jettySize=auto;html=1;exitX=0.5;exitY=1;exitDx=0;exitDy=0;entryX=0.5;entryY=0;entryDx=0;entryDy=0;" parent="KNuNnqPLRCmHPUiM6tUq-1" source="KNuNnqPLRCmHPUiM6tUq-7" target="KNuNnqPLRCmHPUiM6tUq-8" edge="1">
          <mxGeometry relative="1" as="geometry" />
        </mxCell>
        <mxCell id="KNuNnqPLRCmHPUiM6tUq-7" value="&lt;b&gt;&lt;font face=&quot;Times New Roman&quot;&gt;delay 50ms&lt;br&gt;clearDisplay&lt;/font&gt;&lt;/b&gt;" style="rounded=0;whiteSpace=wrap;html=1;strokeColor=#000000;" parent="KNuNnqPLRCmHPUiM6tUq-1" vertex="1">
          <mxGeometry x="300" y="220" width="120" height="60" as="geometry" />
        </mxCell>
        <mxCell id="KNuNnqPLRCmHPUiM6tUq-32" style="edgeStyle=orthogonalEdgeStyle;rounded=0;orthogonalLoop=1;jettySize=auto;html=1;exitX=0.5;exitY=1;exitDx=0;exitDy=0;entryX=0.5;entryY=0;entryDx=0;entryDy=0;" parent="KNuNnqPLRCmHPUiM6tUq-1" source="KNuNnqPLRCmHPUiM6tUq-8" target="KNuNnqPLRCmHPUiM6tUq-11" edge="1">
          <mxGeometry relative="1" as="geometry" />
        </mxCell>
        <mxCell id="KNuNnqPLRCmHPUiM6tUq-8" value="&lt;b style=&quot;font-size: 14px&quot;&gt;&lt;font face=&quot;Times New Roman&quot; style=&quot;font-size: 14px&quot;&gt;affichage &lt;span style=&quot;color: rgb(51 , 51 , 255)&quot;&gt;pas de mesure&lt;/span&gt;&lt;/font&gt;&lt;/b&gt;" style="rounded=0;whiteSpace=wrap;html=1;strokeColor=#000000;" parent="KNuNnqPLRCmHPUiM6tUq-1" vertex="1">
          <mxGeometry x="300" y="300" width="120" height="60" as="geometry" />
        </mxCell>
        <mxCell id="KNuNnqPLRCmHPUiM6tUq-33" style="edgeStyle=orthogonalEdgeStyle;rounded=0;orthogonalLoop=1;jettySize=auto;html=1;exitX=0.5;exitY=1;exitDx=0;exitDy=0;entryX=0.5;entryY=0;entryDx=0;entryDy=0;" parent="KNuNnqPLRCmHPUiM6tUq-1" source="KNuNnqPLRCmHPUiM6tUq-11" target="KNuNnqPLRCmHPUiM6tUq-12" edge="1">
          <mxGeometry relative="1" as="geometry" />
        </mxCell>
        <mxCell id="KNuNnqPLRCmHPUiM6tUq-11" value="&lt;b&gt;&lt;font face=&quot;Times New Roman&quot;&gt;delay 500ms&lt;br&gt;clearDisplay&lt;/font&gt;&lt;/b&gt;" style="rounded=0;whiteSpace=wrap;html=1;strokeColor=#000000;" parent="KNuNnqPLRCmHPUiM6tUq-1" vertex="1">
          <mxGeometry x="300" y="380" width="120" height="30" as="geometry" />
        </mxCell>
        <mxCell id="KNuNnqPLRCmHPUiM6tUq-35" style="edgeStyle=orthogonalEdgeStyle;rounded=0;orthogonalLoop=1;jettySize=auto;html=1;exitX=0.5;exitY=1;exitDx=0;exitDy=0;entryX=0.45;entryY=-0.033;entryDx=0;entryDy=0;entryPerimeter=0;" parent="KNuNnqPLRCmHPUiM6tUq-1" source="KNuNnqPLRCmHPUiM6tUq-12" target="KNuNnqPLRCmHPUiM6tUq-13" edge="1">
          <mxGeometry relative="1" as="geometry" />
        </mxCell>
        <mxCell id="KNuNnqPLRCmHPUiM6tUq-12" value="&lt;b style=&quot;font-size: 14px&quot;&gt;&lt;font face=&quot;Times New Roman&quot; style=&quot;font-size: 14px&quot;&gt;affichage &lt;/font&gt;&lt;/b&gt;&lt;font style=&quot;font-size: 14px&quot;&gt;&lt;b&gt;&lt;font face=&quot;Times New Roman&quot; style=&quot;font-size: 14px&quot;&gt;&lt;font color=&quot;#0000ff&quot; style=&quot;font-size: 14px&quot;&gt;INR=X&lt;/font&gt;&lt;br&gt;&lt;/font&gt;&lt;/b&gt;&lt;br&gt;&lt;/font&gt;" style="rounded=0;whiteSpace=wrap;html=1;strokeColor=#000000;" parent="KNuNnqPLRCmHPUiM6tUq-1" vertex="1">
          <mxGeometry x="300" y="430" width="120" height="40" as="geometry" />
        </mxCell>
        <mxCell id="KNuNnqPLRCmHPUiM6tUq-36" style="edgeStyle=orthogonalEdgeStyle;rounded=0;orthogonalLoop=1;jettySize=auto;html=1;exitX=0.5;exitY=1;exitDx=0;exitDy=0;entryX=0.442;entryY=0;entryDx=0;entryDy=0;entryPerimeter=0;" parent="KNuNnqPLRCmHPUiM6tUq-1" source="KNuNnqPLRCmHPUiM6tUq-13" target="KNuNnqPLRCmHPUiM6tUq-14" edge="1">
          <mxGeometry relative="1" as="geometry" />
        </mxCell>
        <mxCell id="KNuNnqPLRCmHPUiM6tUq-13" value="&lt;b&gt;&lt;font face=&quot;Times New Roman&quot;&gt;delay 500ms&lt;br&gt;clearDisplay&lt;/font&gt;&lt;/b&gt;" style="rounded=0;whiteSpace=wrap;html=1;strokeColor=#000000;" parent="KNuNnqPLRCmHPUiM6tUq-1" vertex="1">
          <mxGeometry x="300" y="490" width="120" height="30" as="geometry" />
        </mxCell>
        <mxCell id="KNuNnqPLRCmHPUiM6tUq-37" style="edgeStyle=orthogonalEdgeStyle;rounded=0;orthogonalLoop=1;jettySize=auto;html=1;exitX=0.5;exitY=1;exitDx=0;exitDy=0;" parent="KNuNnqPLRCmHPUiM6tUq-1" source="KNuNnqPLRCmHPUiM6tUq-14" target="KNuNnqPLRCmHPUiM6tUq-15" edge="1">
          <mxGeometry relative="1" as="geometry" />
        </mxCell>
        <mxCell id="KNuNnqPLRCmHPUiM6tUq-14" value="&lt;b style=&quot;font-size: 13px&quot;&gt;&lt;font face=&quot;Times New Roman&quot; style=&quot;font-size: 13px&quot;&gt;affichage&amp;nbsp;&lt;/font&gt;&lt;font color=&quot;#0000cc&quot; style=&quot;font-size: 13px&quot;&gt;&lt;font face=&quot;Times New Roman&quot; style=&quot;font-size: 13px&quot;&gt;Merci de commencer de noveau&lt;br&gt;&lt;/font&gt;&lt;br&gt;&lt;/font&gt;&lt;/b&gt;" style="rounded=0;whiteSpace=wrap;html=1;strokeColor=#000000;" parent="KNuNnqPLRCmHPUiM6tUq-1" vertex="1">
          <mxGeometry x="307" y="540" width="120" height="60" as="geometry" />
        </mxCell>
        <mxCell id="KNuNnqPLRCmHPUiM6tUq-20" style="edgeStyle=orthogonalEdgeStyle;rounded=0;orthogonalLoop=1;jettySize=auto;html=1;exitX=0.5;exitY=1;exitDx=0;exitDy=0;entryX=0.5;entryY=0;entryDx=0;entryDy=0;" parent="KNuNnqPLRCmHPUiM6tUq-1" source="KNuNnqPLRCmHPUiM6tUq-15" target="KNuNnqPLRCmHPUiM6tUq-17" edge="1">
          <mxGeometry relative="1" as="geometry" />
        </mxCell>
        <mxCell id="KNuNnqPLRCmHPUiM6tUq-15" value="&lt;b style=&quot;font-size: 13px&quot;&gt;&lt;font face=&quot;Times New Roman&quot; style=&quot;font-size: 13px&quot;&gt;delay 1000ms&lt;br&gt;convertir en string&lt;/font&gt;&lt;/b&gt;" style="rounded=0;whiteSpace=wrap;html=1;strokeColor=#000000;" parent="KNuNnqPLRCmHPUiM6tUq-1" vertex="1">
          <mxGeometry x="307" y="620" width="120" height="30" as="geometry" />
        </mxCell>
        <mxCell id="KNuNnqPLRCmHPUiM6tUq-66" style="edgeStyle=orthogonalEdgeStyle;rounded=0;orthogonalLoop=1;jettySize=auto;html=1;exitX=0.5;exitY=1;exitDx=0;exitDy=0;entryX=0.5;entryY=0;entryDx=0;entryDy=0;" parent="KNuNnqPLRCmHPUiM6tUq-1" source="KNuNnqPLRCmHPUiM6tUq-17" target="KNuNnqPLRCmHPUiM6tUq-63" edge="1">
          <mxGeometry relative="1" as="geometry" />
        </mxCell>
        <mxCell id="KNuNnqPLRCmHPUiM6tUq-17" value="&lt;b&gt;&lt;font style=&quot;font-size: 13px&quot; face=&quot;Times New Roman&quot;&gt;envoie de la donnée via une notification&lt;/font&gt;&lt;/b&gt;" style="rounded=1;whiteSpace=wrap;html=1;strokeColor=#6c8ebf;fillColor=#dae8fc;" parent="KNuNnqPLRCmHPUiM6tUq-1" vertex="1">
          <mxGeometry x="307" y="670" width="120" height="60" as="geometry" />
        </mxCell>
        <mxCell id="KNuNnqPLRCmHPUiM6tUq-22" value="&lt;b&gt;&lt;font face=&quot;Times New Roman&quot;&gt;fin&lt;/font&gt;&lt;/b&gt;" style="ellipse;whiteSpace=wrap;html=1;strokeColor=#000000;" parent="KNuNnqPLRCmHPUiM6tUq-1" vertex="1">
          <mxGeometry x="318" y="1030" width="93" height="50" as="geometry" />
        </mxCell>
        <mxCell id="KNuNnqPLRCmHPUiM6tUq-27" style="edgeStyle=orthogonalEdgeStyle;rounded=0;orthogonalLoop=1;jettySize=auto;html=1;exitX=0.5;exitY=1;exitDx=0;exitDy=0;entryX=0.5;entryY=0;entryDx=0;entryDy=0;" parent="KNuNnqPLRCmHPUiM6tUq-1" source="KNuNnqPLRCmHPUiM6tUq-24" target="KNuNnqPLRCmHPUiM6tUq-26" edge="1">
          <mxGeometry relative="1" as="geometry" />
        </mxCell>
        <mxCell id="KNuNnqPLRCmHPUiM6tUq-24" value="&lt;b&gt;&lt;font face=&quot;Times New Roman&quot;&gt;delay 50ms&lt;/font&gt;&lt;/b&gt;" style="rounded=0;whiteSpace=wrap;html=1;strokeColor=#000000;" parent="KNuNnqPLRCmHPUiM6tUq-1" vertex="1">
          <mxGeometry x="550" y="180" width="120" height="40" as="geometry" />
        </mxCell>
        <mxCell id="KNuNnqPLRCmHPUiM6tUq-30" style="edgeStyle=orthogonalEdgeStyle;rounded=0;orthogonalLoop=1;jettySize=auto;html=1;exitX=0.5;exitY=1;exitDx=0;exitDy=0;" parent="KNuNnqPLRCmHPUiM6tUq-1" source="KNuNnqPLRCmHPUiM6tUq-26" target="KNuNnqPLRCmHPUiM6tUq-28" edge="1">
          <mxGeometry relative="1" as="geometry" />
        </mxCell>
        <mxCell id="KNuNnqPLRCmHPUiM6tUq-26" value="&lt;b&gt;&lt;font face=&quot;Times New Roman&quot;&gt;start_mesure()&lt;/font&gt;&lt;/b&gt;" style="rounded=1;whiteSpace=wrap;html=1;strokeColor=#d6b656;fillColor=#fff2cc;" parent="KNuNnqPLRCmHPUiM6tUq-1" vertex="1">
          <mxGeometry x="550" y="240" width="120" height="60" as="geometry" />
        </mxCell>
        <mxCell id="KNuNnqPLRCmHPUiM6tUq-31" style="edgeStyle=orthogonalEdgeStyle;rounded=0;orthogonalLoop=1;jettySize=auto;html=1;exitX=0.5;exitY=1;exitDx=0;exitDy=0;entryX=0.4;entryY=-0.017;entryDx=0;entryDy=0;entryPerimeter=0;" parent="KNuNnqPLRCmHPUiM6tUq-1" source="KNuNnqPLRCmHPUiM6tUq-28" target="KNuNnqPLRCmHPUiM6tUq-29" edge="1">
          <mxGeometry relative="1" as="geometry" />
        </mxCell>
        <mxCell id="KNuNnqPLRCmHPUiM6tUq-28" value="&lt;b&gt;&lt;font face=&quot;Times New Roman&quot;&gt;delay 200ms&lt;br&gt;clearDisplay&lt;/font&gt;&lt;/b&gt;" style="rounded=0;whiteSpace=wrap;html=1;strokeColor=#000000;" parent="KNuNnqPLRCmHPUiM6tUq-1" vertex="1">
          <mxGeometry x="550" y="330" width="120" height="60" as="geometry" />
        </mxCell>
        <mxCell id="KNuNnqPLRCmHPUiM6tUq-39" style="edgeStyle=orthogonalEdgeStyle;rounded=0;orthogonalLoop=1;jettySize=auto;html=1;exitX=0.5;exitY=1;exitDx=0;exitDy=0;entryX=0.5;entryY=0;entryDx=0;entryDy=0;" parent="KNuNnqPLRCmHPUiM6tUq-1" source="KNuNnqPLRCmHPUiM6tUq-29" target="KNuNnqPLRCmHPUiM6tUq-38" edge="1">
          <mxGeometry relative="1" as="geometry" />
        </mxCell>
        <mxCell id="KNuNnqPLRCmHPUiM6tUq-29" value="&lt;b style=&quot;font-size: 14px&quot;&gt;&lt;font face=&quot;Times New Roman&quot; style=&quot;font-size: 14px&quot;&gt;affichage &lt;font color=&quot;#0000ff&quot; style=&quot;font-size: 14px&quot;&gt;INR=valeur&lt;/font&gt;&lt;/font&gt;&lt;/b&gt;" style="rounded=0;whiteSpace=wrap;html=1;strokeColor=#000000;" parent="KNuNnqPLRCmHPUiM6tUq-1" vertex="1">
          <mxGeometry x="550" y="420" width="120" height="50" as="geometry" />
        </mxCell>
        <mxCell id="KNuNnqPLRCmHPUiM6tUq-43" style="edgeStyle=orthogonalEdgeStyle;rounded=0;orthogonalLoop=1;jettySize=auto;html=1;exitX=0.5;exitY=1;exitDx=0;exitDy=0;entryX=0.5;entryY=0;entryDx=0;entryDy=0;" parent="KNuNnqPLRCmHPUiM6tUq-1" source="KNuNnqPLRCmHPUiM6tUq-38" target="KNuNnqPLRCmHPUiM6tUq-41" edge="1">
          <mxGeometry relative="1" as="geometry" />
        </mxCell>
        <mxCell id="KNuNnqPLRCmHPUiM6tUq-38" value="&lt;b&gt;&lt;font face=&quot;Times New Roman&quot;&gt;delay 2000&lt;br&gt;convertir en string&lt;/font&gt;&lt;/b&gt;" style="rounded=0;whiteSpace=wrap;html=1;strokeColor=#000000;" parent="KNuNnqPLRCmHPUiM6tUq-1" vertex="1">
          <mxGeometry x="550" y="500" width="120" height="40" as="geometry" />
        </mxCell>
        <mxCell id="KNuNnqPLRCmHPUiM6tUq-46" style="edgeStyle=orthogonalEdgeStyle;rounded=0;orthogonalLoop=1;jettySize=auto;html=1;exitX=0.5;exitY=1;exitDx=0;exitDy=0;entryX=0.5;entryY=0;entryDx=0;entryDy=0;" parent="KNuNnqPLRCmHPUiM6tUq-1" source="KNuNnqPLRCmHPUiM6tUq-41" target="KNuNnqPLRCmHPUiM6tUq-45" edge="1">
          <mxGeometry relative="1" as="geometry" />
        </mxCell>
        <mxCell id="KNuNnqPLRCmHPUiM6tUq-41" value="&lt;span&gt;&lt;b&gt;&lt;font face=&quot;Times New Roman&quot; style=&quot;font-size: 13px&quot;&gt;envoie de la donnée via une notification&lt;/font&gt;&lt;/b&gt;&lt;/span&gt;" style="rounded=1;whiteSpace=wrap;html=1;strokeColor=#6c8ebf;fillColor=#dae8fc;" parent="KNuNnqPLRCmHPUiM6tUq-1" vertex="1">
          <mxGeometry x="550" y="580" width="120" height="60" as="geometry" />
        </mxCell>
        <mxCell id="KNuNnqPLRCmHPUiM6tUq-48" style="edgeStyle=orthogonalEdgeStyle;rounded=0;orthogonalLoop=1;jettySize=auto;html=1;exitX=0.5;exitY=1;exitDx=0;exitDy=0;entryX=0.5;entryY=0;entryDx=0;entryDy=0;" parent="KNuNnqPLRCmHPUiM6tUq-1" source="KNuNnqPLRCmHPUiM6tUq-45" target="KNuNnqPLRCmHPUiM6tUq-47" edge="1">
          <mxGeometry relative="1" as="geometry" />
        </mxCell>
        <mxCell id="KNuNnqPLRCmHPUiM6tUq-52" style="edgeStyle=orthogonalEdgeStyle;rounded=0;orthogonalLoop=1;jettySize=auto;html=1;exitX=1;exitY=0.5;exitDx=0;exitDy=0;entryX=0;entryY=0.5;entryDx=0;entryDy=0;" parent="KNuNnqPLRCmHPUiM6tUq-1" source="KNuNnqPLRCmHPUiM6tUq-45" target="KNuNnqPLRCmHPUiM6tUq-51" edge="1">
          <mxGeometry relative="1" as="geometry" />
        </mxCell>
        <mxCell id="KNuNnqPLRCmHPUiM6tUq-45" value="&lt;b&gt;&lt;font face=&quot;Times New Roman&quot;&gt;INR&amp;lt;100?&lt;/font&gt;&lt;/b&gt;" style="rhombus;whiteSpace=wrap;html=1;strokeColor=#000000;" parent="KNuNnqPLRCmHPUiM6tUq-1" vertex="1">
          <mxGeometry x="570" y="660" width="80" height="80" as="geometry" />
        </mxCell>
        <mxCell id="KNuNnqPLRCmHPUiM6tUq-67" style="edgeStyle=orthogonalEdgeStyle;rounded=0;orthogonalLoop=1;jettySize=auto;html=1;exitX=0.5;exitY=1;exitDx=0;exitDy=0;entryX=0.5;entryY=0;entryDx=0;entryDy=0;" parent="KNuNnqPLRCmHPUiM6tUq-1" source="KNuNnqPLRCmHPUiM6tUq-47" target="KNuNnqPLRCmHPUiM6tUq-63" edge="1">
          <mxGeometry relative="1" as="geometry">
            <Array as="points">
              <mxPoint x="610" y="940" />
              <mxPoint x="366" y="940" />
            </Array>
          </mxGeometry>
        </mxCell>
        <mxCell id="KNuNnqPLRCmHPUiM6tUq-47" value="&lt;b style=&quot;font-size: 13px&quot;&gt;&lt;font face=&quot;Times New Roman&quot; style=&quot;font-size: 13px&quot;&gt;affichage&amp;nbsp;&lt;font color=&quot;#3333ff&quot; style=&quot;font-size: 13px&quot;&gt;Cher patient, consultez votre médecin pour examiner votre état&lt;/font&gt;&lt;/font&gt;&lt;/b&gt;" style="rounded=0;whiteSpace=wrap;html=1;strokeColor=#000000;" parent="KNuNnqPLRCmHPUiM6tUq-1" vertex="1">
          <mxGeometry x="550" y="760" width="120" height="60" as="geometry" />
        </mxCell>
        <mxCell id="KNuNnqPLRCmHPUiM6tUq-49" value="&lt;b&gt;oui&lt;/b&gt;" style="text;html=1;strokeColor=none;fillColor=none;align=center;verticalAlign=middle;whiteSpace=wrap;rounded=0;" parent="KNuNnqPLRCmHPUiM6tUq-1" vertex="1">
          <mxGeometry x="630" y="740" width="40" height="20" as="geometry" />
        </mxCell>
        <mxCell id="KNuNnqPLRCmHPUiM6tUq-50" value="&lt;b&gt;non&lt;/b&gt;" style="text;html=1;strokeColor=none;fillColor=none;align=center;verticalAlign=middle;whiteSpace=wrap;rounded=0;" parent="KNuNnqPLRCmHPUiM6tUq-1" vertex="1">
          <mxGeometry x="640" y="700" width="40" height="20" as="geometry" />
        </mxCell>
        <mxCell id="KNuNnqPLRCmHPUiM6tUq-56" style="edgeStyle=orthogonalEdgeStyle;rounded=0;orthogonalLoop=1;jettySize=auto;html=1;exitX=0.5;exitY=1;exitDx=0;exitDy=0;entryX=0.5;entryY=0;entryDx=0;entryDy=0;" parent="KNuNnqPLRCmHPUiM6tUq-1" source="KNuNnqPLRCmHPUiM6tUq-51" target="KNuNnqPLRCmHPUiM6tUq-55" edge="1">
          <mxGeometry relative="1" as="geometry" />
        </mxCell>
        <mxCell id="KNuNnqPLRCmHPUiM6tUq-59" style="edgeStyle=orthogonalEdgeStyle;rounded=0;orthogonalLoop=1;jettySize=auto;html=1;exitX=1;exitY=0.5;exitDx=0;exitDy=0;" parent="KNuNnqPLRCmHPUiM6tUq-1" source="KNuNnqPLRCmHPUiM6tUq-51" target="KNuNnqPLRCmHPUiM6tUq-58" edge="1">
          <mxGeometry relative="1" as="geometry" />
        </mxCell>
        <mxCell id="KNuNnqPLRCmHPUiM6tUq-51" value="&lt;b&gt;&lt;font face=&quot;Times New Roman&quot;&gt;100&amp;lt;=INR&amp;lt;300?&lt;/font&gt;&lt;/b&gt;" style="rhombus;whiteSpace=wrap;html=1;strokeColor=#000000;" parent="KNuNnqPLRCmHPUiM6tUq-1" vertex="1">
          <mxGeometry x="680" y="660" width="100" height="80" as="geometry" />
        </mxCell>
        <mxCell id="KNuNnqPLRCmHPUiM6tUq-68" style="edgeStyle=orthogonalEdgeStyle;rounded=0;orthogonalLoop=1;jettySize=auto;html=1;exitX=0.5;exitY=1;exitDx=0;exitDy=0;entryX=0.5;entryY=0;entryDx=0;entryDy=0;" parent="KNuNnqPLRCmHPUiM6tUq-1" source="KNuNnqPLRCmHPUiM6tUq-55" target="KNuNnqPLRCmHPUiM6tUq-63" edge="1">
          <mxGeometry relative="1" as="geometry">
            <Array as="points">
              <mxPoint x="725" y="940" />
              <mxPoint x="366" y="940" />
            </Array>
          </mxGeometry>
        </mxCell>
        <mxCell id="KNuNnqPLRCmHPUiM6tUq-55" value="&lt;b style=&quot;font-size: 13px&quot;&gt;&lt;font face=&quot;Times New Roman&quot;&gt;affichage&amp;nbsp;&lt;font color=&quot;#0000ff&quot; style=&quot;font-size: 13px&quot;&gt;vous etes en bon santé&lt;/font&gt;&lt;/font&gt;&lt;/b&gt;" style="rounded=0;whiteSpace=wrap;html=1;strokeColor=#000000;" parent="KNuNnqPLRCmHPUiM6tUq-1" vertex="1">
          <mxGeometry x="680" y="760" width="90" height="60" as="geometry" />
        </mxCell>
        <mxCell id="KNuNnqPLRCmHPUiM6tUq-57" value="&lt;b&gt;oui&lt;/b&gt;" style="text;html=1;strokeColor=none;fillColor=none;align=center;verticalAlign=middle;whiteSpace=wrap;rounded=0;" parent="KNuNnqPLRCmHPUiM6tUq-1" vertex="1">
          <mxGeometry x="740" y="730" width="40" height="20" as="geometry" />
        </mxCell>
        <mxCell id="KNuNnqPLRCmHPUiM6tUq-62" style="edgeStyle=orthogonalEdgeStyle;rounded=0;orthogonalLoop=1;jettySize=auto;html=1;exitX=0.5;exitY=1;exitDx=0;exitDy=0;entryX=0.5;entryY=0;entryDx=0;entryDy=0;" parent="KNuNnqPLRCmHPUiM6tUq-1" source="KNuNnqPLRCmHPUiM6tUq-58" target="KNuNnqPLRCmHPUiM6tUq-61" edge="1">
          <mxGeometry relative="1" as="geometry" />
        </mxCell>
        <mxCell id="KNuNnqPLRCmHPUiM6tUq-58" value="&lt;b&gt;&lt;font face=&quot;Times New Roman&quot;&gt;INR&amp;gt;=300&lt;/font&gt;&lt;/b&gt;" style="rhombus;whiteSpace=wrap;html=1;strokeColor=#000000;" parent="KNuNnqPLRCmHPUiM6tUq-1" vertex="1">
          <mxGeometry x="820" y="660" width="80" height="80" as="geometry" />
        </mxCell>
        <mxCell id="KNuNnqPLRCmHPUiM6tUq-60" value="&lt;b&gt;non&lt;/b&gt;" style="text;html=1;strokeColor=none;fillColor=none;align=center;verticalAlign=middle;whiteSpace=wrap;rounded=0;" parent="KNuNnqPLRCmHPUiM6tUq-1" vertex="1">
          <mxGeometry x="780" y="680" width="40" height="20" as="geometry" />
        </mxCell>
        <mxCell id="KNuNnqPLRCmHPUiM6tUq-69" style="edgeStyle=orthogonalEdgeStyle;rounded=0;orthogonalLoop=1;jettySize=auto;html=1;exitX=0.5;exitY=1;exitDx=0;exitDy=0;entryX=0.5;entryY=0;entryDx=0;entryDy=0;" parent="KNuNnqPLRCmHPUiM6tUq-1" source="KNuNnqPLRCmHPUiM6tUq-61" target="KNuNnqPLRCmHPUiM6tUq-63" edge="1">
          <mxGeometry relative="1" as="geometry">
            <Array as="points">
              <mxPoint x="860" y="940" />
              <mxPoint x="366" y="940" />
            </Array>
          </mxGeometry>
        </mxCell>
        <mxCell id="KNuNnqPLRCmHPUiM6tUq-61" value="&lt;b style=&quot;font-size: 13px&quot;&gt;&lt;font face=&quot;Times New Roman&quot; style=&quot;font-size: 13px&quot;&gt;affichage&amp;nbsp;&lt;font color=&quot;#3333ff&quot; style=&quot;font-size: 13px&quot;&gt;Vous êtes dans un état norma&lt;/font&gt;l&lt;/font&gt;&lt;/b&gt;" style="rounded=0;whiteSpace=wrap;html=1;strokeColor=#000000;" parent="KNuNnqPLRCmHPUiM6tUq-1" vertex="1">
          <mxGeometry x="800" y="760" width="120" height="60" as="geometry" />
        </mxCell>
        <mxCell id="KNuNnqPLRCmHPUiM6tUq-65" style="edgeStyle=orthogonalEdgeStyle;rounded=0;orthogonalLoop=1;jettySize=auto;html=1;exitX=0.5;exitY=1;exitDx=0;exitDy=0;entryX=0.441;entryY=-0.04;entryDx=0;entryDy=0;entryPerimeter=0;" parent="KNuNnqPLRCmHPUiM6tUq-1" source="KNuNnqPLRCmHPUiM6tUq-63" target="KNuNnqPLRCmHPUiM6tUq-22" edge="1">
          <mxGeometry relative="1" as="geometry" />
        </mxCell>
        <mxCell id="KNuNnqPLRCmHPUiM6tUq-63" value="&lt;b&gt;&lt;font face=&quot;Times New Roman&quot; style=&quot;font-size: 13px&quot;&gt;delay 5ms&lt;/font&gt;&lt;/b&gt;" style="rounded=0;whiteSpace=wrap;html=1;strokeColor=#000000;" parent="KNuNnqPLRCmHPUiM6tUq-1" vertex="1">
          <mxGeometry x="321" y="980" width="90" height="30" as="geometry" />
        </mxCell>
      </root>
    </mxGraphModel>
  </diagram>
  <diagram id="9jqz2PLRxrPUI9iCd9us" name="Page-5">
    <mxGraphModel dx="828" dy="490" grid="1" gridSize="10" guides="1" tooltips="1" connect="1" arrows="1" fold="1" page="1" pageScale="1" pageWidth="827" pageHeight="1169" math="0" shadow="0">
      <root>
        <mxCell id="4OOkta7XDiFyQFaTiKcl-0" />
        <mxCell id="4OOkta7XDiFyQFaTiKcl-1" parent="4OOkta7XDiFyQFaTiKcl-0" />
        <mxCell id="d4oOqIxWEbJ3Y_qr_2uk-55" style="edgeStyle=orthogonalEdgeStyle;rounded=0;orthogonalLoop=1;jettySize=auto;html=1;exitX=0.5;exitY=1;exitDx=0;exitDy=0;entryX=0.5;entryY=0;entryDx=0;entryDy=0;" parent="4OOkta7XDiFyQFaTiKcl-1" source="d4oOqIxWEbJ3Y_qr_2uk-0" target="d4oOqIxWEbJ3Y_qr_2uk-1" edge="1">
          <mxGeometry relative="1" as="geometry" />
        </mxCell>
        <mxCell id="d4oOqIxWEbJ3Y_qr_2uk-0" value="&lt;b&gt;début&lt;/b&gt;" style="ellipse;whiteSpace=wrap;html=1;strokeColor=#000000;" parent="4OOkta7XDiFyQFaTiKcl-1" vertex="1">
          <mxGeometry x="300" y="30" width="120" height="50" as="geometry" />
        </mxCell>
        <mxCell id="d4oOqIxWEbJ3Y_qr_2uk-54" style="edgeStyle=orthogonalEdgeStyle;rounded=0;orthogonalLoop=1;jettySize=auto;html=1;exitX=0.5;exitY=1;exitDx=0;exitDy=0;entryX=0.5;entryY=0;entryDx=0;entryDy=0;" parent="4OOkta7XDiFyQFaTiKcl-1" source="d4oOqIxWEbJ3Y_qr_2uk-1" target="d4oOqIxWEbJ3Y_qr_2uk-2" edge="1">
          <mxGeometry relative="1" as="geometry" />
        </mxCell>
        <mxCell id="d4oOqIxWEbJ3Y_qr_2uk-1" value="&lt;b&gt;&lt;font face=&quot;Times New Roman&quot;&gt;ledvert=1&lt;br&gt;delay 1000ms&lt;/font&gt;&lt;/b&gt;" style="rounded=0;whiteSpace=wrap;html=1;strokeColor=#000000;" parent="4OOkta7XDiFyQFaTiKcl-1" vertex="1">
          <mxGeometry x="300" y="110" width="120" height="40" as="geometry" />
        </mxCell>
        <mxCell id="d4oOqIxWEbJ3Y_qr_2uk-53" style="edgeStyle=orthogonalEdgeStyle;rounded=0;orthogonalLoop=1;jettySize=auto;html=1;exitX=0.5;exitY=1;exitDx=0;exitDy=0;entryX=0.5;entryY=0;entryDx=0;entryDy=0;" parent="4OOkta7XDiFyQFaTiKcl-1" source="d4oOqIxWEbJ3Y_qr_2uk-2" target="d4oOqIxWEbJ3Y_qr_2uk-3" edge="1">
          <mxGeometry relative="1" as="geometry" />
        </mxCell>
        <mxCell id="d4oOqIxWEbJ3Y_qr_2uk-2" value="&lt;b&gt;&lt;font face=&quot;Times New Roman&quot;&gt;buzzer=1&lt;br&gt;delay 1000ms&lt;br&gt;buzzer=0&lt;/font&gt;&lt;/b&gt;" style="rounded=0;whiteSpace=wrap;html=1;strokeColor=#000000;" parent="4OOkta7XDiFyQFaTiKcl-1" vertex="1">
          <mxGeometry x="300" y="170" width="120" height="60" as="geometry" />
        </mxCell>
        <mxCell id="xrIdOgTuOcx77S2E6NjL-1" style="edgeStyle=orthogonalEdgeStyle;rounded=0;orthogonalLoop=1;jettySize=auto;html=1;exitX=0.5;exitY=1;exitDx=0;exitDy=0;entryX=0.5;entryY=0;entryDx=0;entryDy=0;" edge="1" parent="4OOkta7XDiFyQFaTiKcl-1" source="d4oOqIxWEbJ3Y_qr_2uk-3" target="xrIdOgTuOcx77S2E6NjL-0">
          <mxGeometry relative="1" as="geometry" />
        </mxCell>
        <mxCell id="d4oOqIxWEbJ3Y_qr_2uk-3" value="&lt;b&gt;&lt;font face=&quot;Times New Roman&quot;&gt;clearDisplay&lt;br&gt;affichage&amp;nbsp;&lt;span style=&quot;color: rgb(0 , 0 , 255)&quot;&gt;le TEST Commence à :&lt;/span&gt;&lt;br&gt;&lt;br&gt;&lt;/font&gt;&lt;/b&gt;" style="rounded=0;whiteSpace=wrap;html=1;strokeColor=#000000;" parent="4OOkta7XDiFyQFaTiKcl-1" vertex="1">
          <mxGeometry x="301" y="250" width="120" height="50" as="geometry" />
        </mxCell>
        <mxCell id="xrIdOgTuOcx77S2E6NjL-8" style="edgeStyle=orthogonalEdgeStyle;rounded=0;orthogonalLoop=1;jettySize=auto;html=1;exitX=0.5;exitY=1;exitDx=0;exitDy=0;entryX=0.5;entryY=0;entryDx=0;entryDy=0;" edge="1" parent="4OOkta7XDiFyQFaTiKcl-1" source="d4oOqIxWEbJ3Y_qr_2uk-4" target="d4oOqIxWEbJ3Y_qr_2uk-5">
          <mxGeometry relative="1" as="geometry" />
        </mxCell>
        <mxCell id="d4oOqIxWEbJ3Y_qr_2uk-4" value="&lt;b&gt;&lt;font face=&quot;Times New Roman&quot; style=&quot;font-size: 14px&quot;&gt;horloge&lt;/font&gt;()&lt;/b&gt;" style="rounded=1;whiteSpace=wrap;html=1;strokeColor=#d6b656;fillColor=#fff2cc;" parent="4OOkta7XDiFyQFaTiKcl-1" vertex="1">
          <mxGeometry x="300" y="360" width="120" height="60" as="geometry" />
        </mxCell>
        <mxCell id="d4oOqIxWEbJ3Y_qr_2uk-17" style="edgeStyle=orthogonalEdgeStyle;rounded=0;orthogonalLoop=1;jettySize=auto;html=1;exitX=0.5;exitY=1;exitDx=0;exitDy=0;entryX=0.5;entryY=0;entryDx=0;entryDy=0;" parent="4OOkta7XDiFyQFaTiKcl-1" source="d4oOqIxWEbJ3Y_qr_2uk-5" target="d4oOqIxWEbJ3Y_qr_2uk-6" edge="1">
          <mxGeometry relative="1" as="geometry" />
        </mxCell>
        <mxCell id="d4oOqIxWEbJ3Y_qr_2uk-5" value="&lt;b&gt;&lt;font face=&quot;Times New Roman&quot;&gt;clearDisplay&lt;/font&gt;&lt;/b&gt;" style="rounded=0;whiteSpace=wrap;html=1;strokeColor=#000000;" parent="4OOkta7XDiFyQFaTiKcl-1" vertex="1">
          <mxGeometry x="301" y="440" width="120" height="40" as="geometry" />
        </mxCell>
        <mxCell id="d4oOqIxWEbJ3Y_qr_2uk-18" style="edgeStyle=orthogonalEdgeStyle;rounded=0;orthogonalLoop=1;jettySize=auto;html=1;exitX=0.5;exitY=1;exitDx=0;exitDy=0;entryX=0.5;entryY=0;entryDx=0;entryDy=0;" parent="4OOkta7XDiFyQFaTiKcl-1" source="d4oOqIxWEbJ3Y_qr_2uk-6" target="d4oOqIxWEbJ3Y_qr_2uk-12" edge="1">
          <mxGeometry relative="1" as="geometry" />
        </mxCell>
        <mxCell id="d4oOqIxWEbJ3Y_qr_2uk-6" value="&lt;b style=&quot;font-size: 13px&quot;&gt;&lt;font face=&quot;Times New Roman&quot; style=&quot;font-size: 13px&quot;&gt;affichage de&lt;font color=&quot;#0000ff&quot; style=&quot;font-size: 13px&quot;&gt; l&#39;image verre sable heure&amp;nbsp;&lt;/font&gt;&lt;/font&gt;&lt;/b&gt;" style="rounded=0;whiteSpace=wrap;html=1;strokeColor=#000000;" parent="4OOkta7XDiFyQFaTiKcl-1" vertex="1">
          <mxGeometry x="301" y="500" width="119" height="50" as="geometry" />
        </mxCell>
        <mxCell id="d4oOqIxWEbJ3Y_qr_2uk-36" style="edgeStyle=orthogonalEdgeStyle;rounded=0;orthogonalLoop=1;jettySize=auto;html=1;exitX=0.5;exitY=1;exitDx=0;exitDy=0;entryX=0.5;entryY=0;entryDx=0;entryDy=0;" parent="4OOkta7XDiFyQFaTiKcl-1" source="d4oOqIxWEbJ3Y_qr_2uk-7" target="d4oOqIxWEbJ3Y_qr_2uk-33" edge="1">
          <mxGeometry relative="1" as="geometry">
            <Array as="points">
              <mxPoint x="360" y="960" />
              <mxPoint x="360" y="960" />
            </Array>
          </mxGeometry>
        </mxCell>
        <mxCell id="d4oOqIxWEbJ3Y_qr_2uk-7" value="&lt;b&gt;&lt;font face=&quot;Times New Roman&quot;&gt;s=s+sensorValue&lt;/font&gt;&lt;/b&gt;" style="rounded=0;whiteSpace=wrap;html=1;strokeColor=#000000;" parent="4OOkta7XDiFyQFaTiKcl-1" vertex="1">
          <mxGeometry x="240" y="880" width="226" height="30" as="geometry" />
        </mxCell>
        <mxCell id="xrIdOgTuOcx77S2E6NjL-10" value="" style="edgeStyle=orthogonalEdgeStyle;rounded=0;orthogonalLoop=1;jettySize=auto;html=1;" edge="1" parent="4OOkta7XDiFyQFaTiKcl-1" source="d4oOqIxWEbJ3Y_qr_2uk-10" target="xrIdOgTuOcx77S2E6NjL-9">
          <mxGeometry relative="1" as="geometry" />
        </mxCell>
        <mxCell id="d4oOqIxWEbJ3Y_qr_2uk-10" value="&lt;b&gt;i&amp;lt;10?&lt;/b&gt;" style="rhombus;whiteSpace=wrap;html=1;strokeColor=#000000;" parent="4OOkta7XDiFyQFaTiKcl-1" vertex="1">
          <mxGeometry x="310" y="660" width="91" height="80" as="geometry" />
        </mxCell>
        <mxCell id="d4oOqIxWEbJ3Y_qr_2uk-14" style="edgeStyle=orthogonalEdgeStyle;rounded=0;orthogonalLoop=1;jettySize=auto;html=1;exitX=0.5;exitY=1;exitDx=0;exitDy=0;entryX=0.5;entryY=0;entryDx=0;entryDy=0;" parent="4OOkta7XDiFyQFaTiKcl-1" source="d4oOqIxWEbJ3Y_qr_2uk-12" target="d4oOqIxWEbJ3Y_qr_2uk-10" edge="1">
          <mxGeometry relative="1" as="geometry" />
        </mxCell>
        <mxCell id="d4oOqIxWEbJ3Y_qr_2uk-12" value="&lt;b&gt;&lt;font face=&quot;Times New Roman&quot;&gt;declaration des variables intermediaires&lt;br&gt;s=0&lt;br&gt;i=0&lt;br&gt;&lt;/font&gt;&lt;/b&gt;" style="rounded=0;whiteSpace=wrap;html=1;strokeColor=#000000;" parent="4OOkta7XDiFyQFaTiKcl-1" vertex="1">
          <mxGeometry x="301" y="560" width="119" height="70" as="geometry" />
        </mxCell>
        <mxCell id="d4oOqIxWEbJ3Y_qr_2uk-19" value="&lt;b&gt;&lt;font face=&quot;Times New Roman&quot; style=&quot;font-size: 13px&quot;&gt;sensorValue = map(analogRead(sensorPin), 0, 4095, 0, 255)&lt;/font&gt;&lt;/b&gt;" style="rounded=0;whiteSpace=wrap;html=1;strokeColor=#000000;" parent="4OOkta7XDiFyQFaTiKcl-1" vertex="1">
          <mxGeometry x="158.75" y="770" width="393.5" height="40" as="geometry" />
        </mxCell>
        <mxCell id="d4oOqIxWEbJ3Y_qr_2uk-20" value="&lt;b&gt;oui&lt;/b&gt;" style="text;html=1;strokeColor=none;fillColor=none;align=center;verticalAlign=middle;whiteSpace=wrap;rounded=0;" parent="4OOkta7XDiFyQFaTiKcl-1" vertex="1">
          <mxGeometry x="380" y="720" width="40" height="20" as="geometry" />
        </mxCell>
        <mxCell id="d4oOqIxWEbJ3Y_qr_2uk-21" value="&lt;b&gt;non&lt;/b&gt;" style="text;html=1;strokeColor=none;fillColor=none;align=center;verticalAlign=middle;whiteSpace=wrap;rounded=0;" parent="4OOkta7XDiFyQFaTiKcl-1" vertex="1">
          <mxGeometry x="401" y="670" width="40" height="20" as="geometry" />
        </mxCell>
        <mxCell id="d4oOqIxWEbJ3Y_qr_2uk-25" value="" style="endArrow=classic;html=1;exitX=1;exitY=0.5;exitDx=0;exitDy=0;" parent="4OOkta7XDiFyQFaTiKcl-1" source="d4oOqIxWEbJ3Y_qr_2uk-10" edge="1">
          <mxGeometry width="50" height="50" relative="1" as="geometry">
            <mxPoint x="480" y="700" as="sourcePoint" />
            <mxPoint x="361" y="640" as="targetPoint" />
            <Array as="points">
              <mxPoint x="450" y="700" />
              <mxPoint x="450" y="650" />
              <mxPoint x="450" y="640" />
            </Array>
          </mxGeometry>
        </mxCell>
        <mxCell id="d4oOqIxWEbJ3Y_qr_2uk-39" style="edgeStyle=orthogonalEdgeStyle;rounded=0;orthogonalLoop=1;jettySize=auto;html=1;exitX=0.5;exitY=1;exitDx=0;exitDy=0;entryX=0.5;entryY=0;entryDx=0;entryDy=0;" parent="4OOkta7XDiFyQFaTiKcl-1" source="d4oOqIxWEbJ3Y_qr_2uk-33" target="d4oOqIxWEbJ3Y_qr_2uk-37" edge="1">
          <mxGeometry relative="1" as="geometry" />
        </mxCell>
        <mxCell id="d4oOqIxWEbJ3Y_qr_2uk-33" value="&lt;b&gt;&lt;font face=&quot;Times New Roman&quot; style=&quot;font-size: 12px&quot;&gt;somme=s&lt;br&gt;INR=somme/2&lt;br&gt;clearDisplay&lt;/font&gt;&lt;/b&gt;" style="rounded=0;whiteSpace=wrap;html=1;strokeColor=#000000;" parent="4OOkta7XDiFyQFaTiKcl-1" vertex="1">
          <mxGeometry x="280" y="970" width="160" height="40" as="geometry" />
        </mxCell>
        <mxCell id="d4oOqIxWEbJ3Y_qr_2uk-43" style="edgeStyle=orthogonalEdgeStyle;rounded=0;orthogonalLoop=1;jettySize=auto;html=1;exitX=0.5;exitY=1;exitDx=0;exitDy=0;entryX=0.5;entryY=0;entryDx=0;entryDy=0;" parent="4OOkta7XDiFyQFaTiKcl-1" source="d4oOqIxWEbJ3Y_qr_2uk-37" target="d4oOqIxWEbJ3Y_qr_2uk-42" edge="1">
          <mxGeometry relative="1" as="geometry" />
        </mxCell>
        <mxCell id="d4oOqIxWEbJ3Y_qr_2uk-37" value="&lt;b&gt;&lt;font face=&quot;Times New Roman&quot;&gt;affichage&amp;nbsp;&lt;font color=&quot;#0000ff&quot;&gt;l&#39;INR est egale à :&amp;nbsp;&lt;/font&gt;&lt;font color=&quot;#ff0000&quot;&gt;INR&lt;/font&gt;&lt;/font&gt;&lt;/b&gt;" style="rounded=0;whiteSpace=wrap;html=1;strokeColor=#000000;" parent="4OOkta7XDiFyQFaTiKcl-1" vertex="1">
          <mxGeometry x="280" y="1030" width="160" height="40" as="geometry" />
        </mxCell>
        <mxCell id="d4oOqIxWEbJ3Y_qr_2uk-38" value="" style="endArrow=classic;html=1;entryX=0;entryY=0.5;entryDx=0;entryDy=0;" parent="4OOkta7XDiFyQFaTiKcl-1" target="d4oOqIxWEbJ3Y_qr_2uk-10" edge="1">
          <mxGeometry width="50" height="50" relative="1" as="geometry">
            <mxPoint x="360" y="930" as="sourcePoint" />
            <mxPoint x="276.5" y="690" as="targetPoint" />
            <Array as="points">
              <mxPoint x="250" y="930" />
              <mxPoint x="190" y="930" />
              <mxPoint x="120" y="930" />
              <mxPoint x="120" y="780" />
              <mxPoint x="120" y="700" />
              <mxPoint x="190" y="700" />
              <mxPoint x="240" y="700" />
            </Array>
          </mxGeometry>
        </mxCell>
        <mxCell id="d4oOqIxWEbJ3Y_qr_2uk-49" style="edgeStyle=orthogonalEdgeStyle;rounded=0;orthogonalLoop=1;jettySize=auto;html=1;exitX=0.5;exitY=1;exitDx=0;exitDy=0;entryX=0.5;entryY=0;entryDx=0;entryDy=0;" parent="4OOkta7XDiFyQFaTiKcl-1" source="d4oOqIxWEbJ3Y_qr_2uk-42" edge="1">
          <mxGeometry relative="1" as="geometry">
            <mxPoint x="360" y="1150" as="targetPoint" />
          </mxGeometry>
        </mxCell>
        <mxCell id="d4oOqIxWEbJ3Y_qr_2uk-42" value="&lt;b&gt;&lt;font face=&quot;Times New Roman&quot;&gt;ledvert=0&lt;/font&gt;&lt;/b&gt;" style="rounded=0;whiteSpace=wrap;html=1;strokeColor=#000000;" parent="4OOkta7XDiFyQFaTiKcl-1" vertex="1">
          <mxGeometry x="280" y="1090" width="160" height="40" as="geometry" />
        </mxCell>
        <mxCell id="d4oOqIxWEbJ3Y_qr_2uk-44" style="edgeStyle=orthogonalEdgeStyle;rounded=0;orthogonalLoop=1;jettySize=auto;html=1;exitX=0.5;exitY=1;exitDx=0;exitDy=0;" parent="4OOkta7XDiFyQFaTiKcl-1" source="d4oOqIxWEbJ3Y_qr_2uk-42" target="d4oOqIxWEbJ3Y_qr_2uk-42" edge="1">
          <mxGeometry relative="1" as="geometry" />
        </mxCell>
        <mxCell id="d4oOqIxWEbJ3Y_qr_2uk-47" value="&lt;b&gt;fin&lt;/b&gt;" style="ellipse;whiteSpace=wrap;html=1;strokeColor=#000000;" parent="4OOkta7XDiFyQFaTiKcl-1" vertex="1">
          <mxGeometry x="300" y="1150" width="120" height="50" as="geometry" />
        </mxCell>
        <mxCell id="xrIdOgTuOcx77S2E6NjL-7" style="edgeStyle=orthogonalEdgeStyle;rounded=0;orthogonalLoop=1;jettySize=auto;html=1;exitX=0.5;exitY=1;exitDx=0;exitDy=0;entryX=0.5;entryY=0;entryDx=0;entryDy=0;" edge="1" parent="4OOkta7XDiFyQFaTiKcl-1" source="xrIdOgTuOcx77S2E6NjL-0" target="d4oOqIxWEbJ3Y_qr_2uk-4">
          <mxGeometry relative="1" as="geometry" />
        </mxCell>
        <mxCell id="xrIdOgTuOcx77S2E6NjL-0" value="&#xa;&#xa;&lt;b style=&quot;color: rgb(0, 0, 0); font-family: helvetica; font-size: 12px; font-style: normal; letter-spacing: normal; text-align: center; text-indent: 0px; text-transform: none; word-spacing: 0px; background-color: rgb(248, 249, 250);&quot;&gt;&lt;font face=&quot;Times New Roman&quot;&gt;delay2000ms&lt;/font&gt;&lt;/b&gt;&#xa;&#xa;" style="rounded=0;whiteSpace=wrap;html=1;" vertex="1" parent="4OOkta7XDiFyQFaTiKcl-1">
          <mxGeometry x="300" y="310" width="120" height="30" as="geometry" />
        </mxCell>
        <mxCell id="xrIdOgTuOcx77S2E6NjL-2" style="edgeStyle=orthogonalEdgeStyle;rounded=0;orthogonalLoop=1;jettySize=auto;html=1;exitX=0.5;exitY=1;exitDx=0;exitDy=0;" edge="1" parent="4OOkta7XDiFyQFaTiKcl-1" source="xrIdOgTuOcx77S2E6NjL-0" target="xrIdOgTuOcx77S2E6NjL-0">
          <mxGeometry relative="1" as="geometry" />
        </mxCell>
        <mxCell id="xrIdOgTuOcx77S2E6NjL-3" style="edgeStyle=orthogonalEdgeStyle;rounded=0;orthogonalLoop=1;jettySize=auto;html=1;exitX=0.5;exitY=1;exitDx=0;exitDy=0;" edge="1" parent="4OOkta7XDiFyQFaTiKcl-1" source="xrIdOgTuOcx77S2E6NjL-0" target="xrIdOgTuOcx77S2E6NjL-0">
          <mxGeometry relative="1" as="geometry" />
        </mxCell>
        <mxCell id="xrIdOgTuOcx77S2E6NjL-16" style="edgeStyle=orthogonalEdgeStyle;rounded=0;orthogonalLoop=1;jettySize=auto;html=1;exitX=0.5;exitY=1;exitDx=0;exitDy=0;entryX=0.5;entryY=0;entryDx=0;entryDy=0;" edge="1" parent="4OOkta7XDiFyQFaTiKcl-1" source="xrIdOgTuOcx77S2E6NjL-9" target="d4oOqIxWEbJ3Y_qr_2uk-7">
          <mxGeometry relative="1" as="geometry" />
        </mxCell>
        <mxCell id="xrIdOgTuOcx77S2E6NjL-9" value="&#xa;&#xa;&lt;b style=&quot;color: rgb(0, 0, 0); font-family: helvetica; font-size: 12px; font-style: normal; letter-spacing: normal; text-align: center; text-indent: 0px; text-transform: none; word-spacing: 0px; background-color: rgb(248, 249, 250);&quot;&gt;&lt;font face=&quot;Times New Roman&quot;&gt;delay(1000);&lt;span&gt;&amp;nbsp;&lt;/span&gt;&lt;/font&gt;&lt;/b&gt;&#xa;&#xa;" style="rounded=0;whiteSpace=wrap;html=1;" vertex="1" parent="4OOkta7XDiFyQFaTiKcl-1">
          <mxGeometry x="240" y="830" width="230" height="30" as="geometry" />
        </mxCell>
      </root>
    </mxGraphModel>
  </diagram>
</mxfile>
